<?xml version="1.0" encoding="utf-8" standalone="yes"?>
<!DOCTYPE svg PUBLIC "-//W3C//DTD SVG 1.1//EN" "http://www.w3.org/Graphics/SVG/1.1/DTD/svg11.dtd">
<svg width="960" height="734" viewBox="0 0 960 734" style="fill:none;stroke:none;fill-rule:evenodd;clip-rule:evenodd;stroke-linecap:round;stroke-linejoin:round;stroke-miterlimit:1.5;" version="1.1" xmlns="http://www.w3.org/2000/svg" xmlns:xlink="http://www.w3.org/1999/xlink"><style class="text-font-style fontImports" data-font-family="Roboto">@import url('https://fonts.googleapis.com/css2?family=Roboto:wght@400;700&amp;display=block');</style><g id="items" style="isolation: isolate"><g id="blend" style="mix-blend-mode: normal"><g id="g-root-ro_90a37v1izvggf-fill" data-item-order="-17280" transform="translate(14, 212.00006103515625)"><g id="ro_90a37v1izvggf-fill" stroke="none" fill="#ababab"><g><path d="M 22 10L 178 10C 178 10 190 10 190 22L 190 94C 190 94 190 106 178 106L 22 106C 22 106 10 106 10 94L 10 22C 10 22 10 10 22 10"></path></g></g></g><g id="g-root-ro_18gxdjf1j9zb43-fill" data-item-order="-13824" transform="translate(734, 436.00006103515625)"><g id="ro_18gxdjf1j9zb43-fill" stroke="none" fill="#1ac3fb"><g><path d="M 22 10L 190 10C 190 10 202 10 202 22L 202 70C 202 70 202 82 190 82L 22 82C 22 82 10 82 10 70L 10 22C 10 22 10 10 22 10"></path></g></g></g><g id="g-root-ro_1413vez1j9xxql-fill" data-item-order="-13824" transform="translate(734, 270.00006103515625)"><g id="ro_1413vez1j9xxql-fill" stroke="none" fill="#1ac3fb"><g><path d="M 22 10L 190 10C 190 10 202 10 202 22L 202 70C 202 70 202 82 190 82L 22 82C 22 82 10 82 10 70L 10 22C 10 22 10 10 22 10"></path></g></g></g><g id="g-root-ro_dik6a31ja7qpu-fill" data-item-order="-12312" transform="translate(450, 621.0000610351562)"><g id="ro_dik6a31ja7qpu-fill" stroke="none" fill="#1ac3fb"><g><path d="M 22 10L 226 10C 226 10 238 10 238 22L 238 52C 238 52 238 64 226 64L 22 64C 22 64 10 64 10 52L 10 22C 10 22 10 10 22 10"></path></g></g></g><g id="g-root-ro_1lyny6j1j02hoq-fill" data-item-order="-12312" transform="translate(450, 122)"><g id="ro_1lyny6j1j02hoq-fill" stroke="none" fill="#1ac3fb"><g><path d="M 22 10L 226 10C 226 10 238 10 238 22L 238 52C 238 52 238 64 226 64L 22 64C 22 64 10 64 10 52L 10 22C 10 22 10 10 22 10"></path></g></g></g><g id="g-root-ro_m97du31ja7pqn-fill" data-item-order="-12312" transform="translate(450, 547.0000610351562)"><g id="ro_m97du31ja7pqn-fill" stroke="none" fill="#1ac3fb"><g><path d="M 22 10L 226 10C 226 10 238 10 238 22L 238 52C 238 52 238 64 226 64L 22 64C 22 64 10 64 10 52L 10 22C 10 22 10 10 22 10"></path></g></g></g><g id="g-root-ro_1hhk6h71ja6d58-fill" data-item-order="-12312" transform="translate(450, 473.00006103515625)"><g id="ro_1hhk6h71ja6d58-fill" stroke="none" fill="#1ac3fb"><g><path d="M 22 10L 226 10C 226 10 238 10 238 22L 238 52C 238 52 238 64 226 64L 22 64C 22 64 10 64 10 52L 10 22C 10 22 10 10 22 10"></path></g></g></g><g id="g-root-ro_zlwudn1j9mnsw-fill" data-item-order="-12312" transform="translate(450, 399.00006103515625)"><g id="ro_zlwudn1j9mnsw-fill" stroke="none" fill="#1ac3fb"><g><path d="M 22 10L 226 10C 226 10 238 10 238 22L 238 52C 238 52 238 64 226 64L 22 64C 22 64 10 64 10 52L 10 22C 10 22 10 10 22 10"></path></g></g></g><g id="g-root-ro_8fyj1j9qvie-fill" data-item-order="-10368" transform="translate(734, 122)"><g id="ro_8fyj1j9qvie-fill" stroke="none" fill="#1ac3fb"><g><path d="M 22 10L 190 10C 190 10 202 10 202 22L 202 52C 202 52 202 64 190 64L 22 64C 22 64 10 64 10 52L 10 22C 10 22 10 10 22 10"></path></g></g></g><g id="g-root-ro_1lxdoln1j9xvk0-fill" data-item-order="-10368" transform="translate(734, 362.00006103515625)"><g id="ro_1lxdoln1j9xvk0-fill" stroke="none" fill="#1ac3fb"><g><path d="M 22 10L 190 10C 190 10 202 10 202 22L 202 52C 202 52 202 64 190 64L 22 64C 22 64 10 64 10 52L 10 22C 10 22 10 10 22 10"></path></g></g></g><g id="g-root-ro_m9tux71j9tngp-fill" data-item-order="-10368" transform="translate(734, 196.00006103515625)"><g id="ro_m9tux71j9tngp-fill" stroke="none" fill="#1ac3fb"><g><path d="M 22 10L 190 10C 190 10 202 10 202 22L 202 52C 202 52 202 64 190 64L 22 64C 22 64 10 64 10 52L 10 22C 10 22 10 10 22 10"></path></g></g></g><g id="g-root-ro_1heft1n1j9o0zn-fill" data-item-order="-7776" transform="translate(250, 547.0000610351562)"><g id="ro_1heft1n1j9o0zn-fill" stroke="none" fill="#1ac3fb"><g><path d="M 22 10L 142 10C 142 10 154 10 154 22L 154 52C 154 52 154 64 142 64L 22 64C 22 64 10 64 10 52L 10 22C 10 22 10 10 22 10"></path></g></g></g><g id="g-root-ro_qp27d71izwwei-fill" data-item-order="-7776" transform="translate(250, 159)"><g id="ro_qp27d71izwwei-fill" stroke="none" fill="#1ac3fb"><g><path d="M 22 10L 142 10C 142 10 154 10 154 22L 154 52C 154 52 154 64 142 64L 22 64C 22 64 10 64 10 52L 10 22C 10 22 10 10 22 10"></path></g></g></g><g id="g-root-ro_me8hxn1izwwlh-fill" data-item-order="-7776" transform="translate(250, 233.00006103515625)"><g id="ro_me8hxn1izwwlh-fill" stroke="none" fill="#1ac3fb"><g><path d="M 22 10L 142 10C 142 10 154 10 154 22L 154 52C 154 52 154 64 142 64L 22 64C 22 64 10 64 10 52L 10 22C 10 22 10 10 22 10"></path></g></g></g><g id="g-root-ro_i0af2j1j06qkt-fill" data-item-order="-5184" transform="translate(450, 233.00006103515625)"><g id="ro_i0af2j1j06qkt-fill" stroke="none" fill="#1ac3fb"><g><path d="M 22 10L 94 10C 94 10 106 10 106 22L 106 52C 106 52 106 64 94 64L 22 64C 22 64 10 64 10 52L 10 22C 10 22 10 10 22 10"></path></g></g></g><g id="g-root-tx_estructu_1lu9ebv1j9mn7p-fill" data-item-order="0" transform="translate(158, 38)"><g id="tx_estructu_1lu9ebv1j9mn7p-fill" stroke="none" fill="#f4f4f4"><g><text style="font: 25px Roboto, sans-serif; white-space: pre;" font-size="25px" font-family="Roboto, sans-serif"><tspan x="16.41" y="42" dominant-baseline="ideographic">Estructura de Archivos de Proyecto Calculadora Python</tspan></text></g></g></g><g id="g-root-cu_3zdmz1j9mozn-fill" data-item-order="2" transform="translate(194, 186)"></g><g id="g-root-cu_zlwxjf1j9mmmm-fill" data-item-order="2" transform="translate(394, 574.0000610351562)"></g><g id="g-root-cu_1cwqytn1j9mo7f-fill" data-item-order="2" transform="translate(394, 574.0000610351562)"></g><g id="g-root-cu_141qfnv1j9mmm8-fill" data-item-order="2" transform="translate(394, 500.00006103515625)"></g><g id="g-root-cu_4jsvrf1j9mo7b-fill" data-item-order="2" transform="translate(394, 149)"></g><g id="g-root-cu_v63fez1j9mney-fill" data-item-order="2" transform="translate(678, 426.00006103515625)"></g><g id="g-root-cu_qq9xaj1j9mo79-fill" data-item-order="2" transform="translate(678, 389.00006103515625)"></g><g id="g-root-cu_dffw0b1j9mmmk-fill" data-item-order="2" transform="translate(678, 149)"></g><g id="g-root-cu_qq9xaj1j9mo7b-fill" data-item-order="2" transform="translate(546, 260.00006103515625)"></g><g id="g-root-cu_magf631j9mozm-fill" data-item-order="2" transform="translate(546, 223.00006103515625)"></g><g id="g-root-cu_dffw0b1j9mmmn-fill" data-item-order="2" transform="translate(194, 260.00006103515625)"></g><g id="g-root-cu_3zdmz1j9mozl-fill" data-item-order="2" transform="translate(194, 260.00006103515625)"></g><g id="g-root-cu_4jsvrf1j9mo79-fill" data-item-order="2" transform="translate(394, 260.00006103515625)"></g><g id="g-root-cu_8zmdvv1j9mney-fill" data-item-order="2" transform="translate(394, 260.00006103515625)"></g><g id="g-root-ic_bull_146rgln1j06rd0-fill" data-item-order="1000000000" transform="translate(462, 245.00006103515625)"></g><g id="g-root-tx_ui_1ut20971j06rcz-fill" data-item-order="1000000000" transform="translate(498, 248.00006103515625)"><g id="tx_ui_1ut20971j06rcz-fill" stroke="none" fill="#2c2c2c"><g><text style="font: 20px Roboto, sans-serif; white-space: pre;" font-size="20px" font-family="Roboto, sans-serif"><tspan x="12" y="34" dominant-baseline="ideographic">ui/</tspan></text></g></g></g><g id="g-root-tx_testinte_5upqj1ja7q4o-fill" data-item-order="1000000000" transform="translate(498, 636.0000610351562)"><g id="tx_testinte_5upqj1ja7q4o-fill" stroke="none" fill="#2c2c2c"><g><text style="font: 20px Roboto, sans-serif; white-space: pre;" font-size="20px" font-family="Roboto, sans-serif"><tspan x="12" y="34" dominant-baseline="ideographic">test_interface.py</tspan></text></g></g></g><g id="g-root-tx_src_1ur6kzv1izwxe3-fill" data-item-order="1000000000" transform="translate(298, 248.00006103515625)"><g id="tx_src_1ur6kzv1izwxe3-fill" stroke="none" fill="#2c2c2c"><g><text style="font: 20px Roboto, sans-serif; white-space: pre;" font-size="20px" font-family="Roboto, sans-serif"><tspan x="12" y="34" dominant-baseline="ideographic">src</tspan></text></g></g></g><g id="g-root-ic_expa_1q87e171j9xvd0-fill" data-item-order="1000000000" transform="translate(746, 291.00006103515625)"></g><g id="g-root-tx_interfac_htdvpn1j9xvk3-fill" data-item-order="1000000000" transform="translate(782, 282.00006103515625)"><g id="tx_interfac_htdvpn1j9xvk3-fill" stroke="none" fill="#2c2c2c"><g><text style="font: 20px Roboto, sans-serif; white-space: pre;" font-size="20px" font-family="Roboto, sans-serif"><tspan x="12" y="34" dominant-baseline="ideographic">interface_m</tspan><tspan x="12" y="58" dominant-baseline="ideographic">anager.py</tspan></text></g></g></g><g id="g-root-tx_calculat_qwikzv1j9pgxw-fill" data-item-order="1000000000" transform="translate(782, 137)"><g id="tx_calculat_qwikzv1j9pgxw-fill" stroke="none" fill="#2c2c2c"><g><text style="font: 20px Roboto, sans-serif; white-space: pre;" font-size="20px" font-family="Roboto, sans-serif"><tspan x="12" y="34" dominant-baseline="ideographic">calculator.py</tspan></text></g></g></g><g id="g-root-ic_cloc_1use7rf1j9xx5b-fill" data-item-order="1000000000" transform="translate(746, 374.00006103515625)"></g><g id="g-root-ic_1_144w1cb1izwxe4-fill" data-item-order="1000000000" transform="translate(262, 245.00006103515625)"></g><g id="g-root-tx_historyd_v97por1j9xwjq-fill" data-item-order="1000000000" transform="translate(782, 377.00006103515625)"><g id="tx_historyd_v97por1j9xwjq-fill" stroke="none" fill="#2c2c2c"><g><text style="font: 20px Roboto, sans-serif; white-space: pre;" font-size="20px" font-family="Roboto, sans-serif"><tspan x="12" y="34" dominant-baseline="ideographic">history_db.py</tspan></text></g></g></g><g id="g-root-ic_data_18gxdjf1j9mpe7-fill" data-item-order="1000000000" transform="translate(462, 411.00006103515625)"></g><g id="g-root-tx_database_8xqvgr1j9mosm-fill" data-item-order="1000000000" transform="translate(498, 414.00006103515625)"><g id="tx_database_8xqvgr1j9mosm-fill" stroke="none" fill="#2c2c2c"><g><text style="font: 20px Roboto, sans-serif; white-space: pre;" font-size="20px" font-family="Roboto, sans-serif"><tspan x="12" y="34" dominant-baseline="ideographic">database/</tspan></text></g></g></g><g id="g-root-ic_1_1cvj8wb1izwx6p-fill" data-item-order="1000000000" transform="translate(262, 171)"></g><g id="g-root-ic_pers_1q7kwy31j9zbwq-fill" data-item-order="1000000000" transform="translate(746, 457.00006103515625)"></g><g id="g-root-tx_historyd_13zux8r1j9z9q9-fill" data-item-order="1000000000" transform="translate(782, 448.00006103515625)"><g id="tx_historyd_13zux8r1j9z9q9-fill" stroke="none" fill="#2c2c2c"><g><text style="font: 20px Roboto, sans-serif; white-space: pre;" font-size="20px" font-family="Roboto, sans-serif"><tspan x="12" y="34" dominant-baseline="ideographic">history_db_</tspan><tspan x="12" y="58" dominant-baseline="ideographic">manager.py</tspan></text></g></g></g><g id="g-root-ic_pyth_v6r4qz1izvh8m-fill" data-item-order="1000000000" transform="translate(26, 245.00006103515625)"></g><g id="g-root-ic_tube_4njn4b1ja6ayr-fill" data-item-order="1000000000" transform="translate(462, 485.00006103515625)"></g><g id="g-root-ic_bask_v97por1ja7rih-fill" data-item-order="1000000000" transform="translate(462, 633.0000610351562)"></g><g id="g-root-tx_testcalc_v9u6rv1ja6ayq-fill" data-item-order="1000000000" transform="translate(498, 488.00006103515625)"><g id="tx_testcalc_v9u6rv1ja6ayq-fill" stroke="none" fill="#2c2c2c"><g><text style="font: 20px Roboto, sans-serif; white-space: pre;" font-size="20px" font-family="Roboto, sans-serif"><tspan x="12" y="34" dominant-baseline="ideographic">test_calculator.py</tspan></text></g></g></g><g id="g-root-ic_2_dl22mj1j9piit-fill" data-item-order="1000000000" transform="translate(746, 134)"></g><g id="g-root-ic_chec_3zah71j9o1ze-fill" data-item-order="1000000000" transform="translate(262, 559.0000610351562)"></g><g id="g-root-tx_core_quoh571j02jgo-fill" data-item-order="1000000000" transform="translate(498, 137)"><g id="tx_core_quoh571j02jgo-fill" stroke="none" fill="#2c2c2c"><g><text style="font: 20px Roboto, sans-serif; white-space: pre;" font-size="20px" font-family="Roboto, sans-serif"><tspan x="12" y="34" dominant-baseline="ideographic">core/</tspan></text></g></g></g><g id="g-root-tx_tests_qq9u4r1j9o1zd-fill" data-item-order="1000000000" transform="translate(298, 562.0000610351562)"><g id="tx_tests_qq9u4r1j9o1zd-fill" stroke="none" fill="#2c2c2c"><g><text style="font: 20px Roboto, sans-serif; white-space: pre;" font-size="20px" font-family="Roboto, sans-serif"><tspan x="12" y="34" dominant-baseline="ideographic">tests</tspan></text></g></g></g><g id="g-root-ic_ware_zk1f4b1ja7rbi-fill" data-item-order="1000000000" transform="translate(462, 559.0000610351562)"></g><g id="g-root-tx_proyecto_1lt1oej1izvh8l-fill" data-item-order="1000000000" transform="translate(62, 224.00006103515625)"><g id="tx_proyecto_1lt1oej1izvh8l-fill" stroke="none" fill="#2c2c2c"><g><text style="font: 20px Roboto, sans-serif; white-space: pre;" font-size="20px" font-family="Roboto, sans-serif"><tspan x="12" y="34" dominant-baseline="ideographic">Proyecto </tspan><tspan x="12" y="58" dominant-baseline="ideographic">Calculadora </tspan><tspan x="12" y="82" dominant-baseline="ideographic">Python</tspan></text></g></g></g><g id="g-root-ic_voti_v4ue2z1j9tpts-fill" data-item-order="1000000000" transform="translate(746, 208.00006103515625)"></g><g id="g-root-tx_testhist_ux1n1ja7qpx-fill" data-item-order="1000000000" transform="translate(498, 562.0000610351562)"><g id="tx_testhist_ux1n1ja7qpx-fill" stroke="none" fill="#2c2c2c"><g><text style="font: 20px Roboto, sans-serif; white-space: pre;" font-size="20px" font-family="Roboto, sans-serif"><tspan x="12" y="34" dominant-baseline="ideographic">test_history_db.py</tspan></text></g></g></g><g id="g-root-ic_chip_8dxhn1j02jgp-fill" data-item-order="1000000000" transform="translate(462, 134)"></g><g id="g-root-tx_mainpy_4gpqkr1izwxds-fill" data-item-order="1000000000" transform="translate(298, 174)"><g id="tx_mainpy_4gpqkr1izwxds-fill" stroke="none" fill="#2c2c2c"><g><text style="font: 20px Roboto, sans-serif; white-space: pre;" font-size="20px" font-family="Roboto, sans-serif"><tspan x="12" y="34" dominant-baseline="ideographic">main.py</tspan></text></g></g></g><g id="g-root-tx_interfac_1cw4ekr1j9tngn-fill" data-item-order="1000000000" transform="translate(782, 211.00006103515625)"><g id="tx_interfac_1cw4ekr1j9tngn-fill" stroke="none" fill="#2c2c2c"><g><text style="font: 20px Roboto, sans-serif; white-space: pre;" font-size="20px" font-family="Roboto, sans-serif"><tspan x="12" y="34" dominant-baseline="ideographic">interface.py</tspan></text></g></g></g><g id="g-root-ro_90a37v1izvggf-stroke" data-item-order="-17280" transform="translate(14, 212.00006103515625)"><g id="ro_90a37v1izvggf-stroke" fill="none" stroke-linecap="round" stroke-linejoin="round" stroke-miterlimit="4" stroke="#2c2c2c" stroke-width="2"><g><path d="M 22 10L 178 10C 178 10 190 10 190 22L 190 94C 190 94 190 106 178 106L 22 106C 22 106 10 106 10 94L 10 22C 10 22 10 10 22 10"></path></g></g></g><g id="g-root-ro_18gxdjf1j9zb43-stroke" data-item-order="-13824" transform="translate(734, 436.00006103515625)"><g id="ro_18gxdjf1j9zb43-stroke" fill="none" stroke-linecap="round" stroke-linejoin="round" stroke-miterlimit="4" stroke="#2c2c2c" stroke-width="2"><g><path d="M 22 10L 190 10C 190 10 202 10 202 22L 202 70C 202 70 202 82 190 82L 22 82C 22 82 10 82 10 70L 10 22C 10 22 10 10 22 10"></path></g></g></g><g id="g-root-ro_1413vez1j9xxql-stroke" data-item-order="-13824" transform="translate(734, 270.00006103515625)"><g id="ro_1413vez1j9xxql-stroke" fill="none" stroke-linecap="round" stroke-linejoin="round" stroke-miterlimit="4" stroke="#2c2c2c" stroke-width="2"><g><path d="M 22 10L 190 10C 190 10 202 10 202 22L 202 70C 202 70 202 82 190 82L 22 82C 22 82 10 82 10 70L 10 22C 10 22 10 10 22 10"></path></g></g></g><g id="g-root-ro_dik6a31ja7qpu-stroke" data-item-order="-12312" transform="translate(450, 621.0000610351562)"><g id="ro_dik6a31ja7qpu-stroke" fill="none" stroke-linecap="round" stroke-linejoin="round" stroke-miterlimit="4" stroke="#2c2c2c" stroke-width="2"><g><path d="M 22 10L 226 10C 226 10 238 10 238 22L 238 52C 238 52 238 64 226 64L 22 64C 22 64 10 64 10 52L 10 22C 10 22 10 10 22 10"></path></g></g></g><g id="g-root-ro_1lyny6j1j02hoq-stroke" data-item-order="-12312" transform="translate(450, 122)"><g id="ro_1lyny6j1j02hoq-stroke" fill="none" stroke-linecap="round" stroke-linejoin="round" stroke-miterlimit="4" stroke="#2c2c2c" stroke-width="2"><g><path d="M 22 10L 226 10C 226 10 238 10 238 22L 238 52C 238 52 238 64 226 64L 22 64C 22 64 10 64 10 52L 10 22C 10 22 10 10 22 10"></path></g></g></g><g id="g-root-ro_m97du31ja7pqn-stroke" data-item-order="-12312" transform="translate(450, 547.0000610351562)"><g id="ro_m97du31ja7pqn-stroke" fill="none" stroke-linecap="round" stroke-linejoin="round" stroke-miterlimit="4" stroke="#2c2c2c" stroke-width="2"><g><path d="M 22 10L 226 10C 226 10 238 10 238 22L 238 52C 238 52 238 64 226 64L 22 64C 22 64 10 64 10 52L 10 22C 10 22 10 10 22 10"></path></g></g></g><g id="g-root-ro_1hhk6h71ja6d58-stroke" data-item-order="-12312" transform="translate(450, 473.00006103515625)"><g id="ro_1hhk6h71ja6d58-stroke" fill="none" stroke-linecap="round" stroke-linejoin="round" stroke-miterlimit="4" stroke="#2c2c2c" stroke-width="2"><g><path d="M 22 10L 226 10C 226 10 238 10 238 22L 238 52C 238 52 238 64 226 64L 22 64C 22 64 10 64 10 52L 10 22C 10 22 10 10 22 10"></path></g></g></g><g id="g-root-ro_zlwudn1j9mnsw-stroke" data-item-order="-12312" transform="translate(450, 399.00006103515625)"><g id="ro_zlwudn1j9mnsw-stroke" fill="none" stroke-linecap="round" stroke-linejoin="round" stroke-miterlimit="4" stroke="#2c2c2c" stroke-width="2"><g><path d="M 22 10L 226 10C 226 10 238 10 238 22L 238 52C 238 52 238 64 226 64L 22 64C 22 64 10 64 10 52L 10 22C 10 22 10 10 22 10"></path></g></g></g><g id="g-root-ro_8fyj1j9qvie-stroke" data-item-order="-10368" transform="translate(734, 122)"><g id="ro_8fyj1j9qvie-stroke" fill="none" stroke-linecap="round" stroke-linejoin="round" stroke-miterlimit="4" stroke="#2c2c2c" stroke-width="2"><g><path d="M 22 10L 190 10C 190 10 202 10 202 22L 202 52C 202 52 202 64 190 64L 22 64C 22 64 10 64 10 52L 10 22C 10 22 10 10 22 10"></path></g></g></g><g id="g-root-ro_1lxdoln1j9xvk0-stroke" data-item-order="-10368" transform="translate(734, 362.00006103515625)"><g id="ro_1lxdoln1j9xvk0-stroke" fill="none" stroke-linecap="round" stroke-linejoin="round" stroke-miterlimit="4" stroke="#2c2c2c" stroke-width="2"><g><path d="M 22 10L 190 10C 190 10 202 10 202 22L 202 52C 202 52 202 64 190 64L 22 64C 22 64 10 64 10 52L 10 22C 10 22 10 10 22 10"></path></g></g></g><g id="g-root-ro_m9tux71j9tngp-stroke" data-item-order="-10368" transform="translate(734, 196.00006103515625)"><g id="ro_m9tux71j9tngp-stroke" fill="none" stroke-linecap="round" stroke-linejoin="round" stroke-miterlimit="4" stroke="#2c2c2c" stroke-width="2"><g><path d="M 22 10L 190 10C 190 10 202 10 202 22L 202 52C 202 52 202 64 190 64L 22 64C 22 64 10 64 10 52L 10 22C 10 22 10 10 22 10"></path></g></g></g><g id="g-root-ro_1heft1n1j9o0zn-stroke" data-item-order="-7776" transform="translate(250, 547.0000610351562)"><g id="ro_1heft1n1j9o0zn-stroke" fill="none" stroke-linecap="round" stroke-linejoin="round" stroke-miterlimit="4" stroke="#2c2c2c" stroke-width="2"><g><path d="M 22 10L 142 10C 142 10 154 10 154 22L 154 52C 154 52 154 64 142 64L 22 64C 22 64 10 64 10 52L 10 22C 10 22 10 10 22 10"></path></g></g></g><g id="g-root-ro_qp27d71izwwei-stroke" data-item-order="-7776" transform="translate(250, 159)"><g id="ro_qp27d71izwwei-stroke" fill="none" stroke-linecap="round" stroke-linejoin="round" stroke-miterlimit="4" stroke="#2c2c2c" stroke-width="2"><g><path d="M 22 10L 142 10C 142 10 154 10 154 22L 154 52C 154 52 154 64 142 64L 22 64C 22 64 10 64 10 52L 10 22C 10 22 10 10 22 10"></path></g></g></g><g id="g-root-ro_me8hxn1izwwlh-stroke" data-item-order="-7776" transform="translate(250, 233.00006103515625)"><g id="ro_me8hxn1izwwlh-stroke" fill="none" stroke-linecap="round" stroke-linejoin="round" stroke-miterlimit="4" stroke="#2c2c2c" stroke-width="2"><g><path d="M 22 10L 142 10C 142 10 154 10 154 22L 154 52C 154 52 154 64 142 64L 22 64C 22 64 10 64 10 52L 10 22C 10 22 10 10 22 10"></path></g></g></g><g id="g-root-ro_i0af2j1j06qkt-stroke" data-item-order="-5184" transform="translate(450, 233.00006103515625)"><g id="ro_i0af2j1j06qkt-stroke" fill="none" stroke-linecap="round" stroke-linejoin="round" stroke-miterlimit="4" stroke="#2c2c2c" stroke-width="2"><g><path d="M 22 10L 94 10C 94 10 106 10 106 22L 106 52C 106 52 106 64 94 64L 22 64C 22 64 10 64 10 52L 10 22C 10 22 10 10 22 10"></path></g></g></g><g id="g-root-tx_estructu_1lu9ebv1j9mn7p-stroke" data-item-order="0" transform="translate(158, 38)"></g><g id="g-root-cu_3zdmz1j9mozn-stroke" data-item-order="2" transform="translate(194, 186)"><g id="cu_3zdmz1j9mozn-stroke" fill="none" stroke-linecap="round" stroke-linejoin="round" stroke-miterlimit="4" stroke="#f4f4f4" stroke-width="2"><g><path d="M 10 84.000061L 24 84.000061L 38 84.000061L 38 47.000061L 38 10.000061L 52 10.000061L 64 10.000061"></path><path d="M 58 16.500061L 64.5 10.000061L 58 3.500061" stroke-dasharray="none"></path></g></g></g><g id="g-root-cu_zlwxjf1j9mmmm-stroke" data-item-order="2" transform="translate(394, 574.0000610351562)"><g id="cu_zlwxjf1j9mmmm-stroke" fill="none" stroke-linecap="round" stroke-linejoin="round" stroke-miterlimit="4" stroke="#f4f4f4" stroke-width="2"><g><path d="M 10 10L 38 10L 64 10"></path><path d="M 58 16.5L 64.5 10L 58 3.5" stroke-dasharray="none"></path></g></g></g><g id="g-root-cu_1cwqytn1j9mo7f-stroke" data-item-order="2" transform="translate(394, 574.0000610351562)"><g id="cu_1cwqytn1j9mo7f-stroke" fill="none" stroke-linecap="round" stroke-linejoin="round" stroke-miterlimit="4" stroke="#f4f4f4" stroke-width="2"><g><path d="M 10 10L 24 10L 38 10L 38 47L 38 84L 52 84L 64 84"></path><path d="M 58 90.5L 64.5 84L 58 77.5" stroke-dasharray="none"></path></g></g></g><g id="g-root-cu_141qfnv1j9mmm8-stroke" data-item-order="2" transform="translate(394, 500.00006103515625)"><g id="cu_141qfnv1j9mmm8-stroke" fill="none" stroke-linecap="round" stroke-linejoin="round" stroke-miterlimit="4" stroke="#f4f4f4" stroke-width="2"><g><path d="M 10 84L 24 84L 38 84L 38 47L 38 10L 52 10L 64 10"></path><path d="M 58 16.5L 64.5 10L 58 3.5" stroke-dasharray="none"></path></g></g></g><g id="g-root-cu_4jsvrf1j9mo7b-stroke" data-item-order="2" transform="translate(394, 149)"><g id="cu_4jsvrf1j9mo7b-stroke" fill="none" stroke-linecap="round" stroke-linejoin="round" stroke-miterlimit="4" stroke="#f4f4f4" stroke-width="2"><g><path d="M 10 121.000061L 24 121.000061L 38 121.000061L 38 65.500061L 38 10.000061L 52 10.000061L 64 10.000061"></path><path d="M 58 16.500061L 64.5 10.000061L 58 3.500061" stroke-dasharray="none"></path></g></g></g><g id="g-root-cu_v63fez1j9mney-stroke" data-item-order="2" transform="translate(678, 426.00006103515625)"><g id="cu_v63fez1j9mney-stroke" fill="none" stroke-linecap="round" stroke-linejoin="round" stroke-miterlimit="4" stroke="#f4f4f4" stroke-width="2"><g><path d="M 10 10L 24 10L 38 10L 38 33L 38 56L 52 56L 64 56"></path><path d="M 58 62.5L 64.5 56L 58 49.5" stroke-dasharray="none"></path></g></g></g><g id="g-root-cu_qq9xaj1j9mo79-stroke" data-item-order="2" transform="translate(678, 389.00006103515625)"><g id="cu_qq9xaj1j9mo79-stroke" fill="none" stroke-linecap="round" stroke-linejoin="round" stroke-miterlimit="4" stroke="#f4f4f4" stroke-width="2"><g><path d="M 10 47L 24 47L 38 47L 38 28.5L 38 10L 52 10L 64 10"></path><path d="M 58 16.5L 64.5 10L 58 3.5" stroke-dasharray="none"></path></g></g></g><g id="g-root-cu_dffw0b1j9mmmk-stroke" data-item-order="2" transform="translate(678, 149)"><g id="cu_dffw0b1j9mmmk-stroke" fill="none" stroke-linecap="round" stroke-linejoin="round" stroke-miterlimit="4" stroke="#f4f4f4" stroke-width="2"><g><path d="M 10 10.000061L 38 10.000061L 64 10.000061"></path><path d="M 58 16.500061L 64.5 10.000061L 58 3.500061" stroke-dasharray="none"></path></g></g></g><g id="g-root-cu_qq9xaj1j9mo7b-stroke" data-item-order="2" transform="translate(546, 260.00006103515625)"><g id="cu_qq9xaj1j9mo7b-stroke" fill="none" stroke-linecap="round" stroke-linejoin="round" stroke-miterlimit="4" stroke="#f4f4f4" stroke-width="2"><g><path d="M 10 10L 90 10L 170 10L 170 33L 170 56L 184 56L 196 56"></path><path d="M 190 62.5L 196.5 56L 190 49.5" stroke-dasharray="none"></path></g></g></g><g id="g-root-cu_magf631j9mozm-stroke" data-item-order="2" transform="translate(546, 223.00006103515625)"><g id="cu_magf631j9mozm-stroke" fill="none" stroke-linecap="round" stroke-linejoin="round" stroke-miterlimit="4" stroke="#f4f4f4" stroke-width="2"><g><path d="M 10 47L 90 47L 170 47L 170 28.5L 170 10L 184 10L 196 10"></path><path d="M 190 16.5L 196.5 10L 190 3.5" stroke-dasharray="none"></path></g></g></g><g id="g-root-cu_dffw0b1j9mmmn-stroke" data-item-order="2" transform="translate(194, 260.00006103515625)"><g id="cu_dffw0b1j9mmmn-stroke" fill="none" stroke-linecap="round" stroke-linejoin="round" stroke-miterlimit="4" stroke="#f4f4f4" stroke-width="2"><g><path d="M 10 10L 24 10L 38 10L 38 167L 38 324L 52 324L 64 324"></path><path d="M 58 330.5L 64.5 324L 58 317.5" stroke-dasharray="none"></path></g></g></g><g id="g-root-cu_3zdmz1j9mozl-stroke" data-item-order="2" transform="translate(194, 260.00006103515625)"><g id="cu_3zdmz1j9mozl-stroke" fill="none" stroke-linecap="round" stroke-linejoin="round" stroke-miterlimit="4" stroke="#f4f4f4" stroke-width="2"><g><path d="M 10 10L 38 10L 64 10"></path><path d="M 58 16.5L 64.5 10L 58 3.5" stroke-dasharray="none"></path></g></g></g><g id="g-root-cu_4jsvrf1j9mo79-stroke" data-item-order="2" transform="translate(394, 260.00006103515625)"><g id="cu_4jsvrf1j9mo79-stroke" fill="none" stroke-linecap="round" stroke-linejoin="round" stroke-miterlimit="4" stroke="#f4f4f4" stroke-width="2"><g><path d="M 10 10L 38 10L 64 10"></path><path d="M 58 16.5L 64.5 10L 58 3.5" stroke-dasharray="none"></path></g></g></g><g id="g-root-cu_8zmdvv1j9mney-stroke" data-item-order="2" transform="translate(394, 260.00006103515625)"><g id="cu_8zmdvv1j9mney-stroke" fill="none" stroke-linecap="round" stroke-linejoin="round" stroke-miterlimit="4" stroke="#f4f4f4" stroke-width="2"><g><path d="M 10 10L 24 10L 38 10L 38 93L 38 176L 52 176L 64 176"></path><path d="M 58 182.5L 64.5 176L 58 169.5" stroke-dasharray="none"></path></g></g></g><g id="g-root-ic_bull_146rgln1j06rd0-stroke" data-item-order="1000000000" transform="translate(462, 245.00006103515625)"><g id="ic_bull_146rgln1j06rd0-stroke" fill="none" stroke-linecap="round" stroke-linejoin="round" stroke-miterlimit="4" stroke="#2c2c2c" stroke-width="2"><g><path d="M 12.5 17.5C 12.5 19.225889 13.89911 20.625 15.625 20.625C 17.350889 20.625 18.75 19.225889 18.75 17.5C 18.75 15.774111 17.350889 14.375 15.625 14.375C 13.89911 14.375 12.5 15.774111 12.5 17.5ZM 22.5 14.375L 37.5 14.375M 22.5 16.875L 31.25 16.875M 22.5 19.375L 33.75 19.375M 22.5 26.25C 22.5 27.285534 23.339466 28.125 24.375 28.125C 25.410534 28.125 26.25 27.285534 26.25 26.25C 26.25 25.214466 25.410534 24.375 24.375 24.375C 23.339466 24.375 22.5 25.214466 22.5 26.25ZM 28.75 24.375L 38.125 24.375M 28.75 26.875L 33.75 26.875M 22.5 33.75C 22.5 34.785534 23.339466 35.625 24.375 35.625C 25.410534 35.625 26.25 34.785534 26.25 33.75C 26.25 32.714466 25.410534 31.875 24.375 31.875C 23.339466 31.875 22.5 32.714466 22.5 33.75ZM 28.75 31.875L 38.125 31.875M 28.75 34.375L 33.75 34.375M 18.75 23.125L 18.75 24.375M 18.75 26.875L 18.75 28.125M 18.75 30.625L 18.75 31.875M 18.75 34.375L 18.75 35.625"></path></g></g></g><g id="g-root-tx_ui_1ut20971j06rcz-stroke" data-item-order="1000000000" transform="translate(498, 248.00006103515625)"></g><g id="g-root-tx_testinte_5upqj1ja7q4o-stroke" data-item-order="1000000000" transform="translate(498, 636.0000610351562)"></g><g id="g-root-tx_src_1ur6kzv1izwxe3-stroke" data-item-order="1000000000" transform="translate(298, 248.00006103515625)"></g><g id="g-root-ic_expa_1q87e171j9xvd0-stroke" data-item-order="1000000000" transform="translate(746, 291.00006103515625)"><g id="ic_expa_1q87e171j9xvd0-stroke" fill="none" stroke-linecap="round" stroke-linejoin="round" stroke-miterlimit="4" stroke="#2c2c2c" stroke-width="2"><g><path d="M 10.625 39.375L 17.5 32.5M 10.625 33.105L 10.625 39.375L 16.875 39.355M 21.5725 17.8125C 21.5725 19.710979 23.111523 21.25 25.01 21.25C 26.908478 21.25 28.4475 19.710979 28.4475 17.8125C 28.4475 15.914021 26.908478 14.375 25.01 14.375C 23.111523 14.375 21.5725 15.914021 21.5725 17.8125ZM 29.385 26.875C 29.385 24.458755 27.426247 22.500002 25.01 22.500002C 22.593754 22.500002 20.635 24.458755 20.635 26.875002L 20.635 30.625L 22.61375 30.625L 23.135 36.875L 26.885 36.875L 27.404999 30.625L 29.385 30.625ZM 10.625 10.625L 17.5 17.5M 10.625 16.895L 10.625 10.625L 16.875 10.645M 39.375 39.375L 32.5 32.5M 39.375 33.105L 39.375 39.375L 33.125 39.355M 39.375 10.625L 32.5 17.5M 39.375 16.895L 39.375 10.625L 33.125 10.645"></path></g></g></g><g id="g-root-tx_interfac_htdvpn1j9xvk3-stroke" data-item-order="1000000000" transform="translate(782, 282.00006103515625)"></g><g id="g-root-tx_calculat_qwikzv1j9pgxw-stroke" data-item-order="1000000000" transform="translate(782, 137)"></g><g id="g-root-ic_cloc_1use7rf1j9xx5b-stroke" data-item-order="1000000000" transform="translate(746, 374.00006103515625)"><g id="ic_cloc_1use7rf1j9xx5b-stroke" fill="none" stroke-linecap="round" stroke-linejoin="round" stroke-miterlimit="4" stroke="#2c2c2c" stroke-width="2"><g><path d="M 10.6775 15.62625C 10.6775 18.387674 15.994119 20.626251 22.5525 20.626251C 29.110882 20.626251 34.427498 18.387674 34.427498 15.62625C 34.427498 12.864826 29.110882 10.62625 22.5525 10.62625C 15.994119 10.62625 10.6775 12.864826 10.6775 15.62625ZM 22.5525 25.625C 15.995 25.625 10.6775 23.387501 10.6775 20.625M 20.6775 31.1875C 15.01125 30.8125 10.6775 28.74375 10.6775 26.251251M 21.3025 36.849998C 15.3325 36.58625 10.6775 34.459999 10.6775 31.876249L 10.6775 15.625M 34.427498 15.62625L 34.427498 21.251251M 24.421249 31.876249C 24.421251 36.018387 27.779116 39.376251 31.921251 39.376251C 36.063389 39.376251 39.421249 36.018387 39.421249 31.876251C 39.421249 27.734116 36.063389 24.376251 31.921251 24.376251C 27.779116 24.376251 24.421251 27.734116 24.421251 31.876251ZM 34.421249 31.876249L 31.921251 31.876249L 31.921251 28.126251"></path></g></g></g><g id="g-root-ic_1_144w1cb1izwxe4-stroke" data-item-order="1000000000" transform="translate(262, 245.00006103515625)"><g id="ic_1_144w1cb1izwxe4-stroke" fill="none" stroke-linecap="round" stroke-linejoin="round" stroke-miterlimit="4" stroke="#2c2c2c" stroke-width="2"><g><path d="M 35.317501 26.875L 38.75 26.875C 39.095177 26.875 39.375 26.595177 39.375 26.25L 39.375 23.75C 39.375 23.404823 39.095177 23.125 38.75 23.125L 35.31625 23.125C 35.061398 21.857996 34.641132 20.62998 34.06625 19.4725L 36.493752 17.045C 36.73774 16.800938 36.73774 16.405312 36.493752 16.161249L 33.837502 13.51C 33.593437 13.266011 33.197815 13.266011 32.953751 13.51L 30.525 15.9375C 29.368481 15.36241 28.141266 14.942129 26.875 14.6875L 26.875 11.25C 26.875 10.904822 26.595177 10.625 26.25 10.625L 23.75 10.625C 23.404823 10.625 23.125 10.904822 23.125 11.25L 23.125 14.684999C 21.858337 14.939636 20.630707 15.359914 19.473749 15.935L 17.045 13.50875C 16.800938 13.264761 16.405312 13.264761 16.161249 13.50875L 13.50875 16.161249C 13.264761 16.405312 13.264761 16.800938 13.50875 17.045L 15.9375 19.473749C 15.421238 20.479715 15.038424 21.548737 14.79875 22.653749C 14.728477 22.930637 14.479414 23.124638 14.19375 23.125L 11.25 23.125C 10.904822 23.125 10.625 23.404823 10.625 23.75L 10.625 26.25C 10.625 26.595177 10.904822 26.875 11.25 26.875L 14.6825 26.875C 14.937752 28.141497 15.358002 29.369047 15.9325 30.526249L 13.50875 32.955002C 13.264761 33.199062 13.264761 33.594688 13.50875 33.838749L 16.602501 36.932499L 19.477499 34.057499C 20.632908 34.635422 21.859234 35.059048 23.125 35.317501L 23.125 38.75C 23.125 39.095177 23.404823 39.375 23.75 39.375L 26.25 39.375C 26.595177 39.375 26.875 39.095177 26.875 38.75L 26.875 35.317501C 28.141148 35.062439 29.368309 34.642178 30.525 34.067501L 32.955002 36.49625C 33.199062 36.740238 33.594688 36.740238 33.838749 36.49625L 36.489998 33.84375C 36.73399 33.599686 36.73399 33.204063 36.489998 32.959999L 34.0625 30.526249C 34.638725 29.369293 35.060658 28.141733 35.317501 26.875ZM 25.625 30.625L 20 30.625C 19.654821 30.625 19.375 30.345177 19.375 30L 19.375 19.76125C 19.375008 19.544544 19.487268 19.343309 19.671661 19.229465C 19.856052 19.11562 20.086258 19.105415 20.280001 19.202499L 25.625 21.875ZM 25.625 23.125L 31.25 23.125C 31.595177 23.125 31.875 23.404823 31.875 23.75L 31.875 30C 31.875 30.345177 31.595177 30.625 31.25 30.625L 25.625 30.625M 19.375 23.125L 22.5 23.125M 19.375 25.625L 22.5 25.625M 25.625 21.875L 25.625 18.75M 30.625 23.125L 30.625 20M 25.625 25.625L 28.75 25.625M 25.625 28.125L 28.75 28.125"></path></g></g></g><g id="g-root-tx_historyd_v97por1j9xwjq-stroke" data-item-order="1000000000" transform="translate(782, 377.00006103515625)"></g><g id="g-root-ic_data_18gxdjf1j9mpe7-stroke" data-item-order="1000000000" transform="translate(462, 411.00006103515625)"><g id="ic_data_18gxdjf1j9mpe7-stroke" fill="none" stroke-linecap="round" stroke-linejoin="round" stroke-miterlimit="4" stroke="#2c2c2c" stroke-width="2"><g><path d="M 13.75 15C 13.75 17.416246 18.786797 19.375 25 19.375C 31.213203 19.375 36.25 17.416246 36.25 15C 36.25 12.583755 31.213203 10.625 25 10.625C 18.786797 10.625 13.75 12.583755 13.75 15M 13.75 15L 13.75 35C 13.75 37.416252 18.786249 39.375 25 39.375C 31.213751 39.375 36.25 37.416252 36.25 35L 36.25 15M 36.25 19.375C 36.25 21.79125 31.213751 23.75 25 23.75C 18.786249 23.75 13.75 21.79125 13.75 19.375M 36.25 23.75C 36.25 26.16625 31.213751 28.125 25 28.125C 18.786249 28.125 13.75 26.16625 13.75 23.75"></path></g></g></g><g id="g-root-tx_database_8xqvgr1j9mosm-stroke" data-item-order="1000000000" transform="translate(498, 414.00006103515625)"></g><g id="g-root-ic_1_1cvj8wb1izwx6p-stroke" data-item-order="1000000000" transform="translate(262, 171)"><g id="ic_1_1cvj8wb1izwx6p-stroke" fill="none" stroke-linecap="round" stroke-linejoin="round" stroke-miterlimit="4" stroke="#2c2c2c" stroke-width="2"><g><path d="M 12.142857 14.285714L 37.857143 14.285714C 37.857143 14.285714 38.92857 14.285714 38.92857 15.357142L 38.92857 32.5C 38.92857 32.5 38.92857 33.571426 37.857143 33.571426L 12.142857 33.571426C 12.142857 33.571426 11.071428 33.571426 11.071428 32.5L 11.071428 15.357142C 11.071428 15.357142 11.071428 14.285714 12.142857 14.285714M 22.857143 33.571426L 20.714285 38.92857M 27.142857 33.571426L 29.285713 38.92857M 18.571428 38.92857L 31.42857 38.92857M 19.642857 21.25L 15.892857 24.464285L 19.107143 27.142857M 30.892857 21.785713L 34.107143 24.464285L 30.357141 27.678572M 23.392857 28.75L 26.607141 19.107143"></path></g></g></g><g id="g-root-ic_pers_1q7kwy31j9zbwq-stroke" data-item-order="1000000000" transform="translate(746, 457.00006103515625)"><g id="ic_pers_1q7kwy31j9zbwq-stroke" fill="none" stroke-linecap="round" stroke-linejoin="round" stroke-miterlimit="4" stroke="#2c2c2c" stroke-width="2"><g><path d="M 18.9063 22.093737L 18.9063 18.343739M 12.031175 25.71875L 25.78125 25.71875M 26.90625 38.96875C 25.78125 35.71875 22.65625 33.34375 19.031261 33.34375C 15.406262 33.34375 12.156262 35.71875 11.031265 38.96875M 13.781175 27.09375C 13.906175 29.84375 16.156176 32.09375 18.906176 32.09375C 21.781176 32.09375 24.031126 29.84375 24.031126 26.96875L 24.031126 24.71875C 24.031126 21.843737 21.781176 19.593739 18.906176 19.593739C 16.156176 19.593739 13.906175 21.843737 13.781175 24.59375L 13.781175 27.09375ZM 31.46875 18.531261C 35.610878 18.531261 38.96875 16.852337 38.96875 14.781262C 38.96875 12.7102 35.610878 11.031265 31.46875 11.031265C 27.326626 11.031265 23.96875 12.7102 23.96875 14.781262C 23.96875 16.852337 27.326626 18.531261 31.46875 18.531261ZM 28.71875 23.90625C 29.59375 24.03125 30.46875 24.15625 31.46875 24.15625C 35.59375 24.15625 38.96875 22.53125 38.96875 20.406263L 38.96875 14.781262M 23.96875 14.781262L 23.96875 17.531263M 28.71875 29.53125C 29.59375 29.65625 30.46875 29.78125 31.46875 29.78125C 35.59375 29.78125 38.96875 28.15625 38.96875 26.03125L 38.96875 20.406263"></path></g></g></g><g id="g-root-tx_historyd_13zux8r1j9z9q9-stroke" data-item-order="1000000000" transform="translate(782, 448.00006103515625)"></g><g id="g-root-ic_pyth_v6r4qz1izvh8m-stroke" data-item-order="1000000000" transform="translate(26, 245.00006103515625)"><g id="ic_pyth_v6r4qz1izvh8m-stroke" fill="none" stroke-linecap="round" stroke-linejoin="round" stroke-miterlimit="4" stroke="#2c2c2c" stroke-width="2"><g><path d="M 18.125 18.75L 24.2775 18.75M 25.7225 31.25L 31.875 31.25M 26.875 35.625C 26.875 35.970177 27.154823 36.25 27.5 36.25C 27.845177 36.25 28.125 35.970177 28.125 35.625C 28.125 35.279823 27.845177 35 27.5 35C 27.154823 35 26.875 35.279823 26.875 35.625M 21.875 14.375C 21.875 14.720178 22.154823 15 22.5 15C 22.845177 15 23.125 14.720178 23.125 14.375C 23.125 14.029822 22.845177 13.75 22.5 13.75C 22.154823 13.75 21.875 14.029822 21.875 14.375M 38.459999 19.625C 38.296085 19.103781 37.812637 18.74942 37.266251 18.75L 31.875 18.75L 31.875 12.73375C 31.87558 12.187364 31.521221 11.703916 31 11.54C 27.093071 10.319706 22.906931 10.319706 19 11.54C 18.478781 11.703916 18.12442 12.187364 18.125 12.73375L 18.125 18.75L 12.73375 18.75C 12.187364 18.74942 11.703916 19.103781 11.54 19.625C 10.318827 23.10429 10.318827 26.895708 11.54 30.375C 11.703916 30.896221 12.187364 31.25058 12.73375 31.25L 18.125 31.25L 18.125 37.266251C 18.12442 37.812637 18.478781 38.296085 19 38.459999C 22.906931 39.680294 27.093071 39.680294 31.000002 38.460003C 31.521221 38.296085 31.87558 37.812637 31.875 37.266251L 31.875 31.25L 37.266251 31.25C 37.812637 31.25058 38.296085 30.896221 38.459999 30.375C 39.681171 26.895708 39.681171 23.10429 38.459999 19.625ZM 18.125 31.25L 18.125 30C 18.125 27.238577 20.363577 25 23.125 25L 26.875 25C 29.636423 25 31.875 22.761423 31.875 20L 31.875 18.75"></path></g></g></g><g id="g-root-ic_tube_4njn4b1ja6ayr-stroke" data-item-order="1000000000" transform="translate(462, 485.00006103515625)"><g id="ic_tube_4njn4b1ja6ayr-stroke" fill="none" stroke-linecap="round" stroke-linejoin="round" stroke-miterlimit="4" stroke="#2c2c2c" stroke-width="2"><g><path d="M 15.357142 11.071428L 34.642857 11.071428M 31.42857 11.071428L 31.42857 32.5C 31.42857 36.050404 28.550402 38.92857 25 38.92857C 21.449598 38.92857 18.571428 36.050404 18.571428 32.5L 18.571428 11.071428"></path></g></g></g><g id="g-root-ic_bask_v97por1ja7rih-stroke" data-item-order="1000000000" transform="translate(462, 633.0000610351562)"><g id="ic_bask_v97por1ja7rih-stroke" fill="none" stroke-linecap="round" stroke-linejoin="round" stroke-miterlimit="4" stroke="#2c2c2c" stroke-width="2"><g><path d="M 13.214286 12.142857L 13.214286 31.42857C 13.214286 34.978973 16.092455 37.857143 19.642857 37.857143L 30.357141 37.857143C 33.907543 37.857143 36.785713 34.978973 36.785713 31.42857L 36.785713 12.142857M 11.071428 12.142857L 38.92857 12.142857M 13.214286 18.571428L 19.642857 18.571428M 13.214286 25L 19.642857 25M 13.214286 31.42857L 19.642857 31.42857M 30.357141 18.571428L 36.785713 18.571428M 30.357141 25L 36.785713 25M 30.357141 31.42857L 36.785713 31.42857"></path></g></g></g><g id="g-root-tx_testcalc_v9u6rv1ja6ayq-stroke" data-item-order="1000000000" transform="translate(498, 488.00006103515625)"></g><g id="g-root-ic_2_dl22mj1j9piit-stroke" data-item-order="1000000000" transform="translate(746, 134)"><g id="ic_2_dl22mj1j9piit-stroke" fill="none" stroke-linecap="round" stroke-linejoin="round" stroke-miterlimit="4" stroke="#2c2c2c" stroke-width="2"><g><path d="M 15.357142 11.071428L 34.642857 11.071428C 34.642857 11.071428 38.92857 11.071428 38.92857 15.357142L 38.92857 34.642857C 38.92857 34.642857 38.92857 38.92857 34.642857 38.92857L 15.357142 38.92857C 15.357142 38.92857 11.071428 38.92857 11.071428 34.642857L 11.071428 15.357142C 11.071428 15.357142 11.071428 11.071428 15.357142 11.071428M 25 11.071428L 25 38.92857M 11.071428 25L 38.92857 25M 15.357142 18.035713L 20.714285 18.035713M 29.821428 18.035713L 34.107143 18.035713M 29.821428 29.821428L 34.107143 29.821428M 29.821428 34.107143L 34.107143 34.107143M 18.035713 15.357142L 18.035713 20.714285M 15.764286 29.692856L 20.307142 34.235714M 20.307142 29.692856L 15.764286 34.235714"></path></g></g></g><g id="g-root-ic_chec_3zah71j9o1ze-stroke" data-item-order="1000000000" transform="translate(262, 559.0000610351562)"><g id="ic_chec_3zah71j9o1ze-stroke" fill="none" stroke-linecap="round" stroke-linejoin="round" stroke-miterlimit="4" stroke="#2c2c2c" stroke-width="2"><g><path d="M 29.86375 39.375C 34.005886 39.375 37.36375 36.017136 37.36375 31.875C 37.36375 27.732866 34.005886 24.375002 29.86375 24.375002C 25.721615 24.375002 22.36375 27.732864 22.36375 31.875C 22.36375 36.017136 25.721615 39.375 29.86375 39.375ZM 33.206249 29.700001L 29.575001 34.5425C 29.411619 34.759361 29.16235 34.894859 28.891512 34.914032C 28.620674 34.933208 28.354801 34.834179 28.162498 34.642498L 26.2875 32.767502M 16.11375 26.875C 16.11375 27.565357 16.673393 28.125 17.36375 28.125C 18.054106 28.125 18.61375 27.565357 18.61375 26.875C 18.61375 26.184643 18.054106 25.625 17.36375 25.625C 16.673393 25.625 16.11375 26.184643 16.11375 26.875M 18.61375 21.875C 18.61375 22.565357 19.173393 23.125 19.86375 23.125C 20.554106 23.125 21.11375 22.565357 21.11375 21.875C 21.11375 21.184643 20.554106 20.625 19.86375 20.625C 19.173393 20.625 18.61375 21.184643 18.61375 21.875M 17.36375 33.75C 17.36375 34.440353 17.923393 35 18.61375 35C 19.304106 35 19.86375 34.440353 19.86375 33.75C 19.86375 33.059647 19.304106 32.5 18.61375 32.5C 17.923393 32.5 17.36375 33.059647 17.36375 33.75M 23.61375 23.7875L 23.61375 17.115C 23.61368 15.191518 23.931288 13.281229 24.553751 11.46125C 24.670961 11.136789 24.503117 10.778721 24.178751 10.66125C 24.112234 10.637126 24.042004 10.624857 23.971249 10.625L 13.25625 10.625C 12.911072 10.625 12.63125 10.904822 12.63125 11.25C 12.632442 11.320333 12.645108 11.389999 12.66875 11.45625C 13.290016 13.276531 13.60759 15.18662 13.60875 17.110001L 13.60875 34.16C 13.565424 36.790615 15.513705 39.030087 18.125 39.35125C 19.444838 39.482712 20.762707 39.083302 21.7875 38.241249M 13.61375 18.125L 23.61375 18.125"></path></g></g></g><g id="g-root-tx_core_quoh571j02jgo-stroke" data-item-order="1000000000" transform="translate(498, 137)"></g><g id="g-root-tx_tests_qq9u4r1j9o1zd-stroke" data-item-order="1000000000" transform="translate(298, 562.0000610351562)"></g><g id="g-root-ic_ware_zk1f4b1ja7rbi-stroke" data-item-order="1000000000" transform="translate(462, 559.0000610351562)"><g id="ic_ware_zk1f4b1ja7rbi-stroke" fill="none" stroke-linecap="round" stroke-linejoin="round" stroke-miterlimit="4" stroke="#2c2c2c" stroke-width="2"><g><path d="M 25 19.4375C 30.38475 19.4375 34.75 17.534712 34.75 15.1875C 34.75 12.840287 30.38475 10.9375 25 10.9375C 19.615238 10.9375 15.250012 12.840287 15.250012 15.1875C 15.250012 17.534712 19.615238 19.4375 25 19.4375ZM 15.250012 15.268713L 15.250012 34.8125C 15.250012 37.1875 19.653238 39.0625 24.937126 39.0625C 30.346748 39.0625 34.75 37.1875 34.75 34.8125L 34.75 15.268713M 20.75005 28.3125C 21.785576 28.3125 22.625 27.473125 22.625 26.4375C 22.625 25.402 21.785576 24.5625 20.75005 24.5625C 19.714512 24.5625 18.87505 25.402 18.87505 26.4375C 18.87505 27.473125 19.714512 28.3125 20.75005 28.3125ZM 25.75 33.3125C 26.785625 33.3125 27.625 32.473125 27.625 31.4375C 27.625 30.402 26.785625 29.5625 25.75 29.5625C 24.7145 29.5625 23.875 30.402 23.875 31.4375C 23.875 32.473125 24.7145 33.3125 25.75 33.3125ZM 29.250124 27.0625C 30.285625 27.0625 31.125126 26.223125 31.125126 25.1875C 31.125126 24.152 30.285625 23.3125 29.250124 23.3125C 28.214624 23.3125 27.375124 24.152 27.375124 25.1875C 27.375124 26.223125 28.214624 27.0625 29.250124 27.0625ZM 10 10M 28.125126 26.6875L 26.875126 29.9375M 10 10M 22.125013 27.6875L 24.375 30.1875"></path></g></g></g><g id="g-root-tx_proyecto_1lt1oej1izvh8l-stroke" data-item-order="1000000000" transform="translate(62, 224.00006103515625)"></g><g id="g-root-ic_voti_v4ue2z1j9tpts-stroke" data-item-order="1000000000" transform="translate(746, 208.00006103515625)"><g id="ic_voti_v4ue2z1j9tpts-stroke" fill="none" stroke-linecap="round" stroke-linejoin="round" stroke-miterlimit="4" stroke="#2c2c2c" stroke-width="2"><g><path d="M 21.25 23.12875C 21.25 22.438395 20.690357 21.87875 20 21.87875L 16.25 21.87875C 15.559644 21.87875 15 22.438395 15 23.12875M 24.375 23.129999C 24.375 22.439644 24.934643 21.879999 25.625 21.879999L 38.125 21.879999C 38.815353 21.879999 39.375 22.439644 39.375 23.129999L 39.375 26.254999C 39.375 26.945356 38.815353 27.504999 38.125 27.504999L 25.625 27.504999C 24.934643 27.504999 24.375 26.945356 24.375 26.254999L 24.375 23.129999ZM 15 14.37875C 15 13.688395 15.559644 13.12875 16.25 13.12875L 20 13.12875C 20.690357 13.12875 21.25 13.688395 21.25 14.37875L 21.25 17.50375C 21.25 18.194107 20.690357 18.75375 20 18.75375L 16.25 18.75375C 15.559644 18.75375 15 18.194107 15 17.50375L 15 14.37875ZM 24.375 14.377501C 24.375 13.687144 24.934643 13.127501 25.625 13.127501L 38.125 13.127501C 38.815353 13.127501 39.375 13.687144 39.375 14.377501L 39.375 17.502501C 39.375 18.192856 38.815353 18.752501 38.125 18.752501L 25.625 18.752501C 24.934643 18.752501 24.375 18.192856 24.375 17.502501L 24.375 14.377501ZM 10 10M 27.58375 39.375L 27.70875 37.971252C 27.879377 36.093037 26.628553 34.38031 24.7875 33.971249L 20.225 32.956249L 20.225 26.90625C 20.225 25.611834 19.175667 24.5625 17.88125 24.5625C 16.586834 24.5625 15.5375 25.611834 15.5375 26.90625L 15.537499 37.28125L 13.69 35.895C 12.927109 35.323608 11.860232 35.399776 11.186255 36.073753C 10.512277 36.747734 10.436107 37.81461 11.0075 38.577499L 11.6 39.3675"></path></g></g></g><g id="g-root-tx_testhist_ux1n1ja7qpx-stroke" data-item-order="1000000000" transform="translate(498, 562.0000610351562)"></g><g id="g-root-ic_chip_8dxhn1j02jgp-stroke" data-item-order="1000000000" transform="translate(462, 134)"><g id="ic_chip_8dxhn1j02jgp-stroke" fill="none" stroke-linecap="round" stroke-linejoin="round" stroke-miterlimit="4" stroke="#2c2c2c" stroke-width="2"><g><path d="M 21.42375 15.4825C 22.634274 15.07433 23.342331 13.819185 23.065622 12.572029C 22.78891 11.324873 21.616461 10.486963 20.346901 10.629056C 19.077343 10.77115 18.119146 11.847528 18.125 13.125C 18.128387 13.350647 18.162449 13.574784 18.22625 13.79125C 18.0875 13.77875 17.953751 13.75 17.8125 13.75C 16.027031 13.741283 14.393207 14.752452 13.604515 16.354307C 12.815823 17.956163 13.010631 19.86768 14.10625 21.2775C 12.149255 21.411758 10.630382 23.038404 10.630382 25C 10.630382 26.961596 12.149255 28.58824 14.10625 28.7225C 13.010631 30.13232 12.815823 32.043835 13.604515 33.645691C 14.393207 35.247547 16.027031 36.258717 17.8125 36.25C 17.953751 36.25 18.0875 36.221249 18.22625 36.208748C 17.854799 37.522778 18.606428 38.89175 19.914505 39.283642C 21.22258 39.675529 22.603107 38.945328 23.015337 37.64352C 23.427567 36.341713 22.718975 34.949974 21.42375 34.517502M 28.57625 15.4825C 27.365726 15.07433 26.657669 13.819185 26.934378 12.572029C 27.21109 11.324873 28.383539 10.486963 29.653099 10.629056C 30.922657 10.77115 31.880856 11.847528 31.875 13.125C 31.871613 13.350647 31.837549 13.574784 31.77375 13.79125C 31.9125 13.77875 32.046249 13.75 32.1875 13.75C 33.972969 13.741283 35.606796 14.752452 36.395485 16.354307C 37.184177 17.956163 36.989368 19.86768 35.893749 21.2775C 37.850746 21.411758 39.369617 23.038404 39.369617 25C 39.369617 26.961596 37.850746 28.58824 35.893749 28.7225C 36.989368 30.13232 37.184177 32.043835 36.395485 33.645691C 35.606796 35.247547 33.972969 36.258717 32.1875 36.25C 32.046249 36.25 31.9125 36.221249 31.77375 36.208748C 32.145203 37.522778 31.39357 38.89175 30.085497 39.283642C 28.77742 39.675529 27.396893 38.945328 26.984663 37.64352C 26.572433 36.341713 27.281025 34.949974 28.57625 34.517502M 23.125 13C 24.285255 12.330127 25.714746 12.330127 26.875 13M 26.875 37C 25.714746 37.669872 24.285255 37.669872 23.125 37M 21.25 20L 28.75 20C 28.75 20 30 20 30 21.25L 30 28.75C 30 28.75 30 30 28.75 30L 21.25 30C 21.25 30 20 30 20 28.75L 20 21.25C 20 21.25 20 20 21.25 20M 22.5 17.5L 22.5 20M 27.5 17.5L 27.5 20M 17.5 27.5L 20 27.5M 17.5 22.5L 20 22.5M 27.5 32.5L 27.5 30M 22.5 32.5L 22.5 30M 32.5 22.5L 30 22.5M 32.5 27.5L 30 27.5"></path></g></g></g><g id="g-root-tx_mainpy_4gpqkr1izwxds-stroke" data-item-order="1000000000" transform="translate(298, 174)"></g><g id="g-root-tx_interfac_1cw4ekr1j9tngn-stroke" data-item-order="1000000000" transform="translate(782, 211.00006103515625)"></g></g></g><path id="w4l2vuz1jk7bia" d="M65.283 12.757a.35.35 0 0 0 .584.157l5.203-5.141-6.183 3.523.396 1.461zm-2.216-11.7a.35.35 0 0 0-.522.305v3.111l3.276-1.868-2.754-1.548zm3.728 2.105l-4.25 2.421v2.445l6.391-3.644-2.141-1.222zm4.708 3.303a.35.35 0 0 0 0-.609l-1.592-.9-7.365 4.199v1.782a.35.35 0 0 0 .523.305l8.435-4.777z M44.542 2.513c0-.433.355-.783.792-.783s.792.35.792.783-.355.783-.792.783-.792-.35-.792-.783zm59.171 0c0-.433.355-.783.792-.783s.792.35.792.783-.355.783-.792.783-.792-.35-.792-.783zm-85.951 7.636h-1.27v-.487c-.276.201-.864.609-1.881.609-1.202 0-2.274-.794-2.137-2.078.118-1.106 1.153-1.584 1.848-1.727l2.17-.345c0-.539-.29-.956-1.064-1.006s-1.21.305-1.571 1.017l-1.124-.605c1.218-2.631 5.029-1.764 5.029.414v4.207zm-1.27-2.86c.006.396-.062 1.112-.819 1.59-.587.37-1.841.299-1.903-.395-.049-.555.461-.791.906-.898l1.816-.297zm72.662 2.86h-1.27v-.487c-.276.201-.864.609-1.881.609-1.202 0-2.274-.794-2.137-2.078.118-1.106 1.153-1.584 1.848-1.727l2.17-.345c0-.539-.29-.956-1.064-1.006s-1.21.305-1.571 1.017l-1.124-.605c1.218-2.631 5.029-1.764 5.029.414v4.207zm-1.27-2.86c.006.396-.062 1.112-.82 1.59-.587.37-1.841.299-1.903-.395-.049-.555.461-.791.906-.898l1.816-.297zM99.096 10.149H97.85v-8.45h1.246v4.895l2.68-2.559h1.738l-2.633 2.535 2.715 3.578h-1.556l-2.077-2.707-.867.844v1.863zm6.053-6.114h-1.255v6.113h1.255V4.035zm-59.2 0h-1.255v6.113h1.255V4.035zm5.584 6.113V1.697h1.255v2.695c.361-.346 1-.485 1.47-.485 1.452 0 2.477 1.082 2.457 2.448v3.792h-1.27v-3.68c0-.408-.214-1.339-1.315-1.339-.968 0-1.342.756-1.342 1.339v3.681h-1.255zm-4.76-4.894V4.039h.621a.45.45 0 0 0 .45-.45v-.855h1.251v1.305h1.309v1.215h-1.309v3.109c0 .293.105.664.648.664.365 0 .531-.035.736-.07v1.137s-.361.113-.857.113c-1.398 0-1.777-1.051-1.777-1.788V5.254h-1.071zM36.528 4.039h-1.394l2.191 6.106h1.125l1.234-3.918 1.238 3.918h1.129l2.188-6.106h-1.383l-1.359 3.93-1.256-3.93h-1.124l-1.242 3.957-1.348-3.957zM26.212 7.141c-.02 1.566 1.187 3.129 3.223 3.129 1.566 0 2.383-.918 2.734-1.719L31.172 8c-.315.399-.801 1.094-1.738 1.094-1.145 0-1.825-.781-1.891-1.52h4.625c.074-.284.148-.995-.03-1.559-.336-1.064-1.221-2.102-2.839-2.102s-3.088 1.152-3.088 3.227zm1.363-.75h3.348c-.055-.43-.566-1.301-1.623-1.301a1.79 1.79 0 0 0-1.725 1.301zm-8.758.75c.038 1.758 1.277 3.133 3.145 3.133 1.074 0 1.723-.477 1.961-.672v.547h1.242V1.703h-1.258v2.888c-.414-.36-1.062-.68-1.93-.68-1.91 0-3.198 1.473-3.16 3.23zm1.309-.08c0 1.119.723 1.978 1.836 1.978a1.88 1.88 0 0 0 1.94-1.904c0-1.371-1.011-1.99-1.972-1.99s-1.805.798-1.805 1.916zm76.683-.028C96.771 5.275 95.532 3.9 93.664 3.9c-1.074 0-1.723.477-1.961.672v-.547h-1.242v8.22h1.258V9.583c.414.36 1.063.68 1.93.68 1.91 0 3.198-1.473 3.16-3.23zm-1.309.08c0-1.119-.723-1.978-1.836-1.978a1.88 1.88 0 0 0-1.94 1.904c0 1.371 1.011 1.99 1.972 1.99S95.5 8.231 95.5 7.113zM106.441 10.173V4.036h1.254v.382c.361-.346 1-.485 1.47-.485 1.452 0 2.477 1.082 2.457 2.448v3.792h-1.27V6.492c0-.408-.214-1.339-1.315-1.339-.969 0-1.342.756-1.342 1.339v3.681h-1.254zm-30.383-.021V1.824h1.084l4.215 5.777V1.824h1.32v8.328h-1.094l-4.207-5.796v5.796h-1.319zM5.24 10.149H4V2.377h1.014l2.664 3.597 2.654-3.592h1.03v7.766h-1.256V4.762L7.678 8.068 5.24 4.742v5.407z" transform="translate(824, 699.0000610351562)" fill="#ababab88" stroke="none"></path></svg>