<?xml version="1.0" encoding="UTF-8"?>
<!DOCTYPE svg PUBLIC "-//W3C//DTD SVG 1.1//EN" "http://www.w3.org/Graphics/SVG/1.1/DTD/svg11.dtd">
<svg xmlns="http://www.w3.org/2000/svg" style="background: transparent; background-color: transparent; color-scheme: light dark;" xmlns:xlink="http://www.w3.org/1999/xlink" version="1.1" width="829px" height="857px" viewBox="-0.5 -0.5 829 857"><defs><clipPath id="mx-clip-15-595-173-33-0"><rect x="15" y="595" width="173" height="33"/></clipPath><clipPath id="mx-clip-15-628-173-33-0"><rect x="15" y="628" width="173" height="33"/></clipPath><clipPath id="mx-clip-15-661-173-33-0"><rect x="15" y="661" width="173" height="33"/></clipPath><clipPath id="mx-clip-15-694-173-33-0"><rect x="15" y="694" width="173" height="33"/></clipPath><clipPath id="mx-clip-506-595-190-33-0"><rect x="506" y="595" width="190" height="33"/></clipPath><clipPath id="mx-clip-506-628-190-33-0"><rect x="506" y="628" width="190" height="33"/></clipPath><clipPath id="mx-clip-506-661-190-33-0"><rect x="506" y="661" width="190" height="33"/></clipPath><clipPath id="mx-clip-506-694-190-33-0"><rect x="506" y="694" width="190" height="33"/></clipPath><clipPath id="mx-clip-5-384-193-40-0"><rect x="5" y="384" width="193" height="40"/></clipPath><clipPath id="mx-clip-5-432-193-40-0"><rect x="5" y="432" width="193" height="40"/></clipPath><clipPath id="mx-clip-5-472-193-40-0"><rect x="5" y="472" width="193" height="40"/></clipPath><clipPath id="mx-clip-398-37-205-31-0"><rect x="398" y="37" width="205" height="31"/></clipPath><clipPath id="mx-clip-398-68-205-31-0"><rect x="398" y="68" width="205" height="31"/></clipPath><clipPath id="mx-clip-398-99-205-31-0"><rect x="398" y="99" width="205" height="31"/></clipPath><clipPath id="mx-clip-398-130-205-31-0"><rect x="398" y="130" width="205" height="31"/></clipPath><clipPath id="mx-clip-398-161-205-31-0"><rect x="398" y="161" width="205" height="31"/></clipPath><clipPath id="mx-clip-398-192-205-31-0"><rect x="398" y="192" width="205" height="31"/></clipPath><clipPath id="mx-clip-398-231-205-31-0"><rect x="398" y="231" width="205" height="31"/></clipPath><clipPath id="mx-clip-398-262-205-31-0"><rect x="398" y="262" width="205" height="31"/></clipPath></defs><g><g data-cell-id="0"><g data-cell-id="1"><g data-cell-id="1tqKX6WpvJvGT1mXoT5A-2"><g><path d="M 405 837 L 405 816.1 Q 405 799 387.9 799 L 314.1 799 Q 297 799 297 816.1 L 297 837" fill="none" stroke="#000000" stroke-width="2" stroke-miterlimit="10" pointer-events="all" style="stroke: light-dark(rgb(0, 0, 0), rgb(237, 237, 237));"/><path d="M 297 837 L 297 838.9 Q 297 856 314.1 856 L 387.9 856 Q 405 856 405 838.9 L 405 837" fill="none" stroke="#000000" stroke-width="2" stroke-miterlimit="10" pointer-events="none" style="stroke: light-dark(rgb(0, 0, 0), rgb(237, 237, 237));"/><path d="M 297 837 L 405 837" fill="none" stroke="#000000" stroke-width="2" stroke-miterlimit="10" pointer-events="none" style="stroke: light-dark(rgb(0, 0, 0), rgb(237, 237, 237));"/></g><g><g fill="#000000" font-family="&quot;Helvetica&quot;" font-weight="bold" text-anchor="middle" font-size="12px" style="fill: light-dark(rgb(0, 0, 0), rgb(255, 255, 255));"><text x="350.5" y="816.5">BaseModel</text></g></g><g data-cell-id="1tqKX6WpvJvGT1mXoT5A-3"><g><path d="M 297 846.5 L 405 846.5" fill="none" stroke="#000000" stroke-width="2" stroke-miterlimit="10" pointer-events="all" style="stroke: light-dark(rgb(0, 0, 0), rgb(237, 237, 237));"/></g></g></g><g data-cell-id="1tqKX6WpvJvGT1mXoT5A-4"><g><path d="M 192 590.45 L 192 572.05 Q 192 557 176.95 557 L 26.05 557 Q 11 557 11 572.05 L 11 590.45" fill="none" stroke="#000000" stroke-width="2" stroke-miterlimit="10" pointer-events="all" style="stroke: light-dark(rgb(0, 0, 0), rgb(237, 237, 237));"/><path d="M 11 590.45 L 11 724.4 Q 11 739.45 26.05 739.45 L 176.95 739.45 Q 192 739.45 192 724.4 L 192 590.45" fill="none" stroke="#000000" stroke-width="2" stroke-miterlimit="10" pointer-events="none" style="stroke: light-dark(rgb(0, 0, 0), rgb(237, 237, 237));"/><path d="M 11 590.45 L 192 590.45" fill="none" stroke="#000000" stroke-width="2" stroke-miterlimit="10" pointer-events="none" style="stroke: light-dark(rgb(0, 0, 0), rgb(237, 237, 237));"/></g><g><g fill="#000000" font-family="&quot;Helvetica&quot;" font-weight="bold" text-anchor="middle" font-size="12px" style="fill: light-dark(rgb(0, 0, 0), rgb(255, 255, 255));"><text x="101" y="574.5">ScreenConfig</text></g></g><g data-cell-id="1tqKX6WpvJvGT1mXoT5A-5"><g><rect x="11" y="590.45" width="181" height="33" fill="none" stroke="#000000" stroke-width="2" pointer-events="all" style="stroke: light-dark(rgb(0, 0, 0), rgb(237, 237, 237));"/></g><g><g fill="#000000" font-family="&quot;Helvetica&quot;" clip-path="url(#mx-clip-15-595-173-33-0)" font-size="12px" style="fill: light-dark(rgb(0, 0, 0), rgb(255, 255, 255));"><text x="16.5" y="607.95">+style</text></g></g></g><g data-cell-id="1tqKX6WpvJvGT1mXoT5A-6"><g><rect x="11" y="623.45" width="181" height="33" fill="none" stroke="#000000" stroke-width="2" pointer-events="all" style="stroke: light-dark(rgb(0, 0, 0), rgb(237, 237, 237));"/></g><g><g fill="#000000" font-family="&quot;Helvetica&quot;" clip-path="url(#mx-clip-15-628-173-33-0)" font-size="12px" style="fill: light-dark(rgb(0, 0, 0), rgb(255, 255, 255));"><text x="16.5" y="640.95">+alignment</text></g></g></g><g data-cell-id="1tqKX6WpvJvGT1mXoT5A-7"><g><rect x="11" y="656.45" width="181" height="33" fill="none" stroke="#000000" stroke-width="2" pointer-events="all" style="stroke: light-dark(rgb(0, 0, 0), rgb(237, 237, 237));"/></g><g><g fill="#000000" font-family="&quot;Helvetica&quot;" clip-path="url(#mx-clip-15-661-173-33-0)" font-size="12px" style="fill: light-dark(rgb(0, 0, 0), rgb(255, 255, 255));"><text x="16.5" y="673.95">+size_policy_h</text></g></g></g><g data-cell-id="1tqKX6WpvJvGT1mXoT5A-8"><g><rect x="11" y="689.45" width="181" height="33" fill="none" stroke="#000000" stroke-width="2" pointer-events="all" style="stroke: light-dark(rgb(0, 0, 0), rgb(237, 237, 237));"/></g><g><g fill="#000000" font-family="&quot;Helvetica&quot;" clip-path="url(#mx-clip-15-694-173-33-0)" font-size="12px" style="fill: light-dark(rgb(0, 0, 0), rgb(255, 255, 255));"><text x="16.5" y="706.95">+size_policy_v</text></g></g></g><g data-cell-id="1tqKX6WpvJvGT1mXoT5A-9"><g><path d="M 11 730.95 L 192 730.95" fill="none" stroke="#000000" stroke-width="2" stroke-miterlimit="10" pointer-events="all" style="stroke: light-dark(rgb(0, 0, 0), rgb(237, 237, 237));"/></g></g></g><g data-cell-id="1tqKX6WpvJvGT1mXoT5A-10"><g><path d="M 700 590.45 L 700 572.05 Q 700 557 684.95 557 L 517.05 557 Q 502 557 502 572.05 L 502 590.45" fill="none" stroke="#000000" stroke-width="2" stroke-miterlimit="10" pointer-events="all" style="stroke: light-dark(rgb(0, 0, 0), rgb(237, 237, 237));"/><path d="M 502 590.45 L 502 724.4 Q 502 739.45 517.05 739.45 L 684.95 739.45 Q 700 739.45 700 724.4 L 700 590.45" fill="none" stroke="#000000" stroke-width="2" stroke-miterlimit="10" pointer-events="none" style="stroke: light-dark(rgb(0, 0, 0), rgb(237, 237, 237));"/><path d="M 502 590.45 L 700 590.45" fill="none" stroke="#000000" stroke-width="2" stroke-miterlimit="10" pointer-events="none" style="stroke: light-dark(rgb(0, 0, 0), rgb(237, 237, 237));"/></g><g><g fill="#000000" font-family="&quot;Helvetica&quot;" font-weight="bold" text-anchor="middle" font-size="12px" style="fill: light-dark(rgb(0, 0, 0), rgb(255, 255, 255));"><text x="600.5" y="574.5">ScreenState</text></g></g><g data-cell-id="1tqKX6WpvJvGT1mXoT5A-11"><g><rect x="502" y="590.45" width="198" height="33" fill="none" stroke="#000000" stroke-width="2" pointer-events="all" style="stroke: light-dark(rgb(0, 0, 0), rgb(237, 237, 237));"/></g><g><g fill="#000000" font-family="&quot;Helvetica&quot;" clip-path="url(#mx-clip-506-595-190-33-0)" font-size="12px" style="fill: light-dark(rgb(0, 0, 0), rgb(255, 255, 255));"><text x="507.5" y="607.95">+display_value_1</text></g></g></g><g data-cell-id="1tqKX6WpvJvGT1mXoT5A-12"><g><rect x="502" y="623.45" width="198" height="33" fill="none" stroke="#000000" stroke-width="2" pointer-events="all" style="stroke: light-dark(rgb(0, 0, 0), rgb(237, 237, 237));"/></g><g><g fill="#000000" font-family="&quot;Helvetica&quot;" clip-path="url(#mx-clip-506-628-190-33-0)" font-size="12px" style="fill: light-dark(rgb(0, 0, 0), rgb(255, 255, 255));"><text x="507.5" y="640.95">+display_operator</text></g></g></g><g data-cell-id="1tqKX6WpvJvGT1mXoT5A-13"><g><rect x="502" y="656.45" width="198" height="33" fill="none" stroke="#000000" stroke-width="2" pointer-events="all" style="stroke: light-dark(rgb(0, 0, 0), rgb(237, 237, 237));"/></g><g><g fill="#000000" font-family="&quot;Helvetica&quot;" clip-path="url(#mx-clip-506-661-190-33-0)" font-size="12px" style="fill: light-dark(rgb(0, 0, 0), rgb(255, 255, 255));"><text x="507.5" y="673.95">+display_value_2</text></g></g></g><g data-cell-id="1tqKX6WpvJvGT1mXoT5A-14"><g><rect x="502" y="689.45" width="198" height="33" fill="none" stroke="#000000" stroke-width="2" pointer-events="all" style="stroke: light-dark(rgb(0, 0, 0), rgb(237, 237, 237));"/></g><g><g fill="#000000" font-family="&quot;Helvetica&quot;" clip-path="url(#mx-clip-506-694-190-33-0)" font-size="12px" style="fill: light-dark(rgb(0, 0, 0), rgb(255, 255, 255));"><text x="507.5" y="706.95">+display_result</text></g></g></g><g data-cell-id="1tqKX6WpvJvGT1mXoT5A-15"><g><path d="M 502 730.95 L 700 730.95" fill="none" stroke="#000000" stroke-width="2" stroke-miterlimit="10" pointer-events="all" style="stroke: light-dark(rgb(0, 0, 0), rgb(237, 237, 237));"/></g></g></g><g data-cell-id="1tqKX6WpvJvGT1mXoT5A-16"><g><path d="M 202 379 L 202 357 Q 202 339 184 339 L 19 339 Q 1 339 1 357 L 1 379" fill="none" stroke="#000000" stroke-width="2" stroke-miterlimit="10" pointer-events="all" style="stroke: light-dark(rgb(0, 0, 0), rgb(237, 237, 237));"/><path d="M 1 379 L 1 489 Q 1 507 19 507 L 184 507 Q 202 507 202 489 L 202 379" fill="none" stroke="#000000" stroke-width="2" stroke-miterlimit="10" pointer-events="none" style="stroke: light-dark(rgb(0, 0, 0), rgb(237, 237, 237));"/><path d="M 1 379 L 202 379" fill="none" stroke="#000000" stroke-width="2" stroke-miterlimit="10" pointer-events="none" style="stroke: light-dark(rgb(0, 0, 0), rgb(237, 237, 237));"/></g><g><g fill="#000000" font-family="&quot;Helvetica&quot;" font-weight="bold" text-anchor="middle" font-size="12px" style="fill: light-dark(rgb(0, 0, 0), rgb(255, 255, 255));"><text x="101" y="356.5">ScreenFactory</text></g></g><g data-cell-id="1tqKX6WpvJvGT1mXoT5A-17"><g><rect x="1" y="379" width="201" height="40" fill="none" stroke="#000000" stroke-width="2" pointer-events="all" style="stroke: light-dark(rgb(0, 0, 0), rgb(237, 237, 237));"/></g><g><g fill="#000000" font-family="&quot;Helvetica&quot;" clip-path="url(#mx-clip-5-384-193-40-0)" font-size="12px" style="fill: light-dark(rgb(0, 0, 0), rgb(255, 255, 255));"><text x="6.5" y="396.5">-config</text></g></g></g><g data-cell-id="1tqKX6WpvJvGT1mXoT5A-18"><g><path d="M 1 423 L 202 423" fill="none" stroke="#000000" stroke-width="2" stroke-miterlimit="10" pointer-events="all" style="stroke: light-dark(rgb(0, 0, 0), rgb(237, 237, 237));"/></g></g><g data-cell-id="1tqKX6WpvJvGT1mXoT5A-19"><g><rect x="1" y="427" width="201" height="40" fill="none" stroke="#000000" stroke-width="2" pointer-events="all" style="stroke: light-dark(rgb(0, 0, 0), rgb(237, 237, 237));"/></g><g><g fill="#000000" font-family="&quot;Helvetica&quot;" clip-path="url(#mx-clip-5-432-193-40-0)" font-size="12px" style="fill: light-dark(rgb(0, 0, 0), rgb(255, 255, 255));"><text x="6.5" y="444.5">+__init__()</text></g></g></g><g data-cell-id="1tqKX6WpvJvGT1mXoT5A-20"><g><rect x="1" y="467" width="201" height="40" rx="6" ry="6" fill="none" stroke="#000000" stroke-width="2" pointer-events="all" style="stroke: light-dark(rgb(0, 0, 0), rgb(237, 237, 237));"/></g><g><g fill="#000000" font-family="&quot;Helvetica&quot;" clip-path="url(#mx-clip-5-472-193-40-0)" font-size="12px" style="fill: light-dark(rgb(0, 0, 0), rgb(255, 255, 255));"><text x="6.5" y="484.5">+create_screen()</text></g></g></g></g><g data-cell-id="1tqKX6WpvJvGT1mXoT5A-21"><g><path d="M 828 649 L 828 628.1 Q 828 611 810.9 611 L 767.1 611 Q 750 611 750 628.1 L 750 649" fill="none" stroke="#000000" stroke-width="2" stroke-miterlimit="10" pointer-events="all" style="stroke: light-dark(rgb(0, 0, 0), rgb(237, 237, 237));"/><path d="M 750 649 L 750 650.9 Q 750 668 767.1 668 L 810.9 668 Q 828 668 828 650.9 L 828 649" fill="none" stroke="#000000" stroke-width="2" stroke-miterlimit="10" pointer-events="none" style="stroke: light-dark(rgb(0, 0, 0), rgb(237, 237, 237));"/><path d="M 750 649 L 828 649" fill="none" stroke="#000000" stroke-width="2" stroke-miterlimit="10" pointer-events="none" style="stroke: light-dark(rgb(0, 0, 0), rgb(237, 237, 237));"/></g><g><g fill="#000000" font-family="&quot;Helvetica&quot;" font-weight="bold" text-anchor="middle" font-size="12px" style="fill: light-dark(rgb(0, 0, 0), rgb(255, 255, 255));"><text x="788.5" y="628.5">QLabel</text></g></g><g data-cell-id="1tqKX6WpvJvGT1mXoT5A-22"><g><path d="M 750 658.5 L 828 658.5" fill="none" stroke="#000000" stroke-width="2" stroke-miterlimit="10" pointer-events="all" style="stroke: light-dark(rgb(0, 0, 0), rgb(237, 237, 237));"/></g></g></g><g data-cell-id="1tqKX6WpvJvGT1mXoT5A-23"><g><path d="M 607 32.11 L 607 15 Q 607 1 593 1 L 408 1 Q 394 1 394 15 L 394 32.11" fill="none" stroke="#000000" stroke-width="2" stroke-miterlimit="10" pointer-events="all" style="stroke: light-dark(rgb(0, 0, 0), rgb(237, 237, 237));"/><path d="M 394 32.11 L 394 274.11 Q 394 288.11 408 288.11 L 593 288.11 Q 607 288.11 607 274.11 L 607 32.11" fill="none" stroke="#000000" stroke-width="2" stroke-miterlimit="10" pointer-events="none" style="stroke: light-dark(rgb(0, 0, 0), rgb(237, 237, 237));"/><path d="M 394 32.11 L 607 32.11" fill="none" stroke="#000000" stroke-width="2" stroke-miterlimit="10" pointer-events="none" style="stroke: light-dark(rgb(0, 0, 0), rgb(237, 237, 237));"/></g><g><g fill="#000000" font-family="&quot;Helvetica&quot;" font-weight="bold" text-anchor="middle" font-size="12px" style="fill: light-dark(rgb(0, 0, 0), rgb(255, 255, 255));"><text x="500" y="18.5">ScreensCreator</text></g></g><g data-cell-id="1tqKX6WpvJvGT1mXoT5A-24"><g><rect x="394" y="32.11" width="213" height="31" fill="none" stroke="#000000" stroke-width="2" pointer-events="all" style="stroke: light-dark(rgb(0, 0, 0), rgb(237, 237, 237));"/></g><g><g fill="#000000" font-family="&quot;Helvetica&quot;" clip-path="url(#mx-clip-398-37-205-31-0)" font-size="12px" style="fill: light-dark(rgb(0, 0, 0), rgb(255, 255, 255));"><text x="399.5" y="49.61">-main_window</text></g></g></g><g data-cell-id="1tqKX6WpvJvGT1mXoT5A-25"><g><rect x="394" y="63.11" width="213" height="31" fill="none" stroke="#000000" stroke-width="2" pointer-events="all" style="stroke: light-dark(rgb(0, 0, 0), rgb(237, 237, 237));"/></g><g><g fill="#000000" font-family="&quot;Helvetica&quot;" clip-path="url(#mx-clip-398-68-205-31-0)" font-size="12px" style="fill: light-dark(rgb(0, 0, 0), rgb(255, 255, 255));"><text x="399.5" y="80.61">-display_value_1</text></g></g></g><g data-cell-id="1tqKX6WpvJvGT1mXoT5A-26"><g><rect x="394" y="94.11" width="213" height="31" fill="none" stroke="#000000" stroke-width="2" pointer-events="all" style="stroke: light-dark(rgb(0, 0, 0), rgb(237, 237, 237));"/></g><g><g fill="#000000" font-family="&quot;Helvetica&quot;" clip-path="url(#mx-clip-398-99-205-31-0)" font-size="12px" style="fill: light-dark(rgb(0, 0, 0), rgb(255, 255, 255));"><text x="399.5" y="111.61">-display_operator</text></g></g></g><g data-cell-id="1tqKX6WpvJvGT1mXoT5A-27"><g><rect x="394" y="125.11" width="213" height="31" fill="none" stroke="#000000" stroke-width="2" pointer-events="all" style="stroke: light-dark(rgb(0, 0, 0), rgb(237, 237, 237));"/></g><g><g fill="#000000" font-family="&quot;Helvetica&quot;" clip-path="url(#mx-clip-398-130-205-31-0)" font-size="12px" style="fill: light-dark(rgb(0, 0, 0), rgb(255, 255, 255));"><text x="399.5" y="142.61">-display_value_2</text></g></g></g><g data-cell-id="1tqKX6WpvJvGT1mXoT5A-28"><g><rect x="394" y="156.11" width="213" height="31" fill="none" stroke="#000000" stroke-width="2" pointer-events="all" style="stroke: light-dark(rgb(0, 0, 0), rgb(237, 237, 237));"/></g><g><g fill="#000000" font-family="&quot;Helvetica&quot;" clip-path="url(#mx-clip-398-161-205-31-0)" font-size="12px" style="fill: light-dark(rgb(0, 0, 0), rgb(255, 255, 255));"><text x="399.5" y="173.61">-display_result</text></g></g></g><g data-cell-id="1tqKX6WpvJvGT1mXoT5A-29"><g><rect x="394" y="187.11" width="213" height="31" fill="none" stroke="#000000" stroke-width="2" pointer-events="all" style="stroke: light-dark(rgb(0, 0, 0), rgb(237, 237, 237));"/></g><g><g fill="#000000" font-family="&quot;Helvetica&quot;" clip-path="url(#mx-clip-398-192-205-31-0)" font-size="12px" style="fill: light-dark(rgb(0, 0, 0), rgb(255, 255, 255));"><text x="399.5" y="204.61">-state</text></g></g></g><g data-cell-id="1tqKX6WpvJvGT1mXoT5A-30"><g><path d="M 394 222.11 L 607 222.11" fill="none" stroke="#000000" stroke-width="2" stroke-miterlimit="10" pointer-events="all" style="stroke: light-dark(rgb(0, 0, 0), rgb(237, 237, 237));"/></g></g><g data-cell-id="1tqKX6WpvJvGT1mXoT5A-31"><g><rect x="394" y="226.11" width="213" height="31" fill="none" stroke="#000000" stroke-width="2" pointer-events="all" style="stroke: light-dark(rgb(0, 0, 0), rgb(237, 237, 237));"/></g><g><g fill="#000000" font-family="&quot;Helvetica&quot;" clip-path="url(#mx-clip-398-231-205-31-0)" font-size="12px" style="fill: light-dark(rgb(0, 0, 0), rgb(255, 255, 255));"><text x="399.5" y="243.61">+__init__()</text></g></g></g><g data-cell-id="1tqKX6WpvJvGT1mXoT5A-32"><g><rect x="394" y="257.11" width="213" height="31" rx="4.65" ry="4.65" fill="none" stroke="#000000" stroke-width="2" pointer-events="all" style="stroke: light-dark(rgb(0, 0, 0), rgb(237, 237, 237));"/></g><g><g fill="#000000" font-family="&quot;Helvetica&quot;" clip-path="url(#mx-clip-398-262-205-31-0)" font-size="12px" style="fill: light-dark(rgb(0, 0, 0), rgb(255, 255, 255));"><text x="399.5" y="274.61">+create_screens()</text></g></g></g></g><g data-cell-id="1tqKX6WpvJvGT1mXoT5A-33"><g><path d="M 386 419 L 386 398.1 Q 386 381 368.9 381 L 269.1 381 Q 252 381 252 398.1 L 252 419" fill="none" stroke="#000000" stroke-width="2" stroke-miterlimit="10" pointer-events="all" style="stroke: light-dark(rgb(0, 0, 0), rgb(237, 237, 237));"/><path d="M 252 419 L 252 420.9 Q 252 438 269.1 438 L 368.9 438 Q 386 438 386 420.9 L 386 419" fill="none" stroke="#000000" stroke-width="2" stroke-miterlimit="10" pointer-events="none" style="stroke: light-dark(rgb(0, 0, 0), rgb(237, 237, 237));"/><path d="M 252 419 L 386 419" fill="none" stroke="#000000" stroke-width="2" stroke-miterlimit="10" pointer-events="none" style="stroke: light-dark(rgb(0, 0, 0), rgb(237, 237, 237));"/></g><g><g fill="#000000" font-family="&quot;Helvetica&quot;" font-weight="bold" text-anchor="middle" font-size="12px" style="fill: light-dark(rgb(0, 0, 0), rgb(255, 255, 255));"><text x="318.5" y="398.5">QMainWindow</text></g></g><g data-cell-id="1tqKX6WpvJvGT1mXoT5A-34"><g><path d="M 252 428.5 L 386 428.5" fill="none" stroke="#000000" stroke-width="2" stroke-miterlimit="10" pointer-events="all" style="stroke: light-dark(rgb(0, 0, 0), rgb(237, 237, 237));"/></g></g></g><g data-cell-id="1tqKX6WpvJvGT1mXoT5A-35"><g><path d="M 566 419 L 566 398.1 Q 566 381 548.9 381 L 453.1 381 Q 436 381 436 398.1 L 436 419" fill="none" stroke="#000000" stroke-width="2" stroke-miterlimit="10" pointer-events="all" style="stroke: light-dark(rgb(0, 0, 0), rgb(237, 237, 237));"/><path d="M 436 419 L 436 420.9 Q 436 438 453.1 438 L 548.9 438 Q 566 438 566 420.9 L 566 419" fill="none" stroke="#000000" stroke-width="2" stroke-miterlimit="10" pointer-events="none" style="stroke: light-dark(rgb(0, 0, 0), rgb(237, 237, 237));"/><path d="M 436 419 L 566 419" fill="none" stroke="#000000" stroke-width="2" stroke-miterlimit="10" pointer-events="none" style="stroke: light-dark(rgb(0, 0, 0), rgb(237, 237, 237));"/></g><g><g fill="#000000" font-family="&quot;Helvetica&quot;" font-weight="bold" text-anchor="middle" font-size="12px" style="fill: light-dark(rgb(0, 0, 0), rgb(255, 255, 255));"><text x="500.5" y="398.5">QVBoxLayout</text></g></g><g data-cell-id="1tqKX6WpvJvGT1mXoT5A-36"><g><path d="M 436 428.5 L 566 428.5" fill="none" stroke="#000000" stroke-width="2" stroke-miterlimit="10" pointer-events="all" style="stroke: light-dark(rgb(0, 0, 0), rgb(237, 237, 237));"/></g></g></g><g data-cell-id="1tqKX6WpvJvGT1mXoT5A-37"><g><path d="M 101.5 739.45 Q 101 774 277.25 813.4" fill="none" stroke="#000000" stroke-width="2" stroke-miterlimit="10" pointer-events="stroke" style="stroke: light-dark(rgb(0, 0, 0), rgb(237, 237, 237));"/><path d="M 294.82 817.32 L 275.29 822.18 L 279.21 804.61 Z" fill="none" stroke="#000000" stroke-width="2" stroke-miterlimit="10" pointer-events="all" style="stroke: light-dark(rgb(0, 0, 0), rgb(237, 237, 237));"/></g></g><g data-cell-id="1tqKX6WpvJvGT1mXoT5A-38"><g><path d="M 601 739.45 Q 601 774 424.75 813.4" fill="none" stroke="#000000" stroke-width="2" stroke-miterlimit="10" pointer-events="stroke" style="stroke: light-dark(rgb(0, 0, 0), rgb(237, 237, 237));"/><path d="M 407.18 817.32 L 422.79 804.61 L 426.71 822.18 Z" fill="none" stroke="#000000" stroke-width="2" stroke-miterlimit="10" pointer-events="all" style="stroke: light-dark(rgb(0, 0, 0), rgb(237, 237, 237));"/></g></g><g data-cell-id="1tqKX6WpvJvGT1mXoT5A-39"><g><path d="M 101.5 507 Q 101.5 507 101.5 552.53" fill="none" stroke="#000000" stroke-width="2" stroke-miterlimit="10" pointer-events="stroke" style="stroke: light-dark(rgb(0, 0, 0), rgb(237, 237, 237));"/><path d="M 94.5 540.76 L 101.5 554.76 L 108.5 540.76" fill="none" stroke="#000000" stroke-width="2" stroke-miterlimit="10" pointer-events="all" style="stroke: light-dark(rgb(0, 0, 0), rgb(237, 237, 237));"/></g></g><g data-cell-id="1tqKX6WpvJvGT1mXoT5A-40"><g><path d="M 202 441.48 Q 705 532 756.82 607.32" fill="none" stroke="#000000" stroke-width="2" stroke-miterlimit="10" pointer-events="stroke" style="stroke: light-dark(rgb(0, 0, 0), rgb(237, 237, 237));"/><path d="M 744.39 601.59 L 758.09 609.16 L 755.92 593.66" fill="none" stroke="#000000" stroke-width="2" stroke-miterlimit="10" pointer-events="all" style="stroke: light-dark(rgb(0, 0, 0), rgb(237, 237, 237));"/></g></g><g data-cell-id="1tqKX6WpvJvGT1mXoT5A-41"><g><path d="M 394 242.17 Q 319 314 319 376.53" fill="none" stroke="#000000" stroke-width="2" stroke-miterlimit="10" pointer-events="stroke" style="stroke: light-dark(rgb(0, 0, 0), rgb(237, 237, 237));"/><path d="M 312 364.76 L 319 378.76 L 326 364.76" fill="none" stroke="#000000" stroke-width="2" stroke-miterlimit="10" pointer-events="all" style="stroke: light-dark(rgb(0, 0, 0), rgb(237, 237, 237));"/></g></g><g data-cell-id="1tqKX6WpvJvGT1mXoT5A-42"><g><path d="M 394 190.49 Q 101 314 101.41 334.53" fill="none" stroke="#000000" stroke-width="2" stroke-miterlimit="10" pointer-events="stroke" style="stroke: light-dark(rgb(0, 0, 0), rgb(237, 237, 237));"/><path d="M 94.18 322.91 L 101.46 336.76 L 108.17 322.63" fill="none" stroke="#000000" stroke-width="2" stroke-miterlimit="10" pointer-events="all" style="stroke: light-dark(rgb(0, 0, 0), rgb(237, 237, 237));"/></g></g><g data-cell-id="1tqKX6WpvJvGT1mXoT5A-43"><g><path d="M 585.7 288.11 Q 601 314 601 552.53" fill="none" stroke="#000000" stroke-width="2" stroke-miterlimit="10" pointer-events="stroke" style="stroke: light-dark(rgb(0, 0, 0), rgb(237, 237, 237));"/><path d="M 594 540.76 L 601 554.76 L 608 540.76" fill="none" stroke="#000000" stroke-width="2" stroke-miterlimit="10" pointer-events="all" style="stroke: light-dark(rgb(0, 0, 0), rgb(237, 237, 237));"/></g></g><g data-cell-id="1tqKX6WpvJvGT1mXoT5A-44"><g><path d="M 500.5 288.11 Q 500.5 288.11 500.98 376.53" fill="none" stroke="#000000" stroke-width="2" stroke-miterlimit="10" pointer-events="stroke" style="stroke: light-dark(rgb(0, 0, 0), rgb(237, 237, 237));"/><path d="M 493.91 364.8 L 500.99 378.76 L 507.91 364.73" fill="none" stroke="#000000" stroke-width="2" stroke-miterlimit="10" pointer-events="all" style="stroke: light-dark(rgb(0, 0, 0), rgb(237, 237, 237));"/></g></g><g data-cell-id="1tqKX6WpvJvGT1mXoT5A-45"><g><path d="M 607 204.85 Q 799 314 799 423 Q 799 532 792.51 606.54" fill="none" stroke="#000000" stroke-width="2" stroke-miterlimit="10" pointer-events="stroke" style="stroke: light-dark(rgb(0, 0, 0), rgb(237, 237, 237));"/><path d="M 786.56 594.22 L 792.31 608.77 L 800.5 595.43" fill="none" stroke="#000000" stroke-width="2" stroke-miterlimit="10" pointer-events="all" style="stroke: light-dark(rgb(0, 0, 0), rgb(237, 237, 237));"/></g></g></g></g></g></svg>