<?xml version="1.0" encoding="UTF-8"?>
<!DOCTYPE svg PUBLIC "-//W3C//DTD SVG 1.1//EN" "http://www.w3.org/Graphics/SVG/1.1/DTD/svg11.dtd">
<svg xmlns="http://www.w3.org/2000/svg" style="background: transparent; background-color: transparent; color-scheme: light dark;" xmlns:xlink="http://www.w3.org/1999/xlink" version="1.1" width="336px" height="442px" viewBox="-0.5 -0.5 336 442"><defs><clipPath id="mx-clip-22-36-293-30-0"><rect x="22" y="36" width="293" height="30"/></clipPath><clipPath id="mx-clip-22-66-293-30-0"><rect x="22" y="66" width="293" height="30"/></clipPath><clipPath id="mx-clip-22-96-293-30-0"><rect x="22" y="96" width="293" height="30"/></clipPath><clipPath id="mx-clip-22-126-293-30-0"><rect x="22" y="126" width="293" height="30"/></clipPath><clipPath id="mx-clip-22-156-293-30-0"><rect x="22" y="156" width="293" height="30"/></clipPath><clipPath id="mx-clip-22-186-293-30-0"><rect x="22" y="186" width="293" height="30"/></clipPath><clipPath id="mx-clip-22-224-293-30-0"><rect x="22" y="224" width="293" height="30"/></clipPath><clipPath id="mx-clip-22-254-293-30-0"><rect x="22" y="254" width="293" height="30"/></clipPath><clipPath id="mx-clip-22-284-293-30-0"><rect x="22" y="284" width="293" height="30"/></clipPath></defs><g><g data-cell-id="0"><g data-cell-id="1"><g data-cell-id="4-K8Nt5ZfAYIev5A59Jn-1"><g><path d="M 319 31.4 L 319 14.68 Q 319 1 305.32 1 L 31.68 1 Q 18 1 18 14.68 L 18 31.4" fill="none" stroke="#000000" stroke-width="2" stroke-miterlimit="10" pointer-events="all" style="stroke: light-dark(rgb(0, 0, 0), rgb(255, 255, 255));"/><path d="M 18 31.4 L 18 295.72 Q 18 309.4 31.68 309.4 L 305.32 309.4 Q 319 309.4 319 295.72 L 319 31.4" fill="none" stroke="#000000" stroke-width="2" stroke-miterlimit="10" pointer-events="none" style="stroke: light-dark(rgb(0, 0, 0), rgb(255, 255, 255));"/><path d="M 18 31.4 L 319 31.4" fill="none" stroke="#000000" stroke-width="2" stroke-miterlimit="10" pointer-events="none" style="stroke: light-dark(rgb(0, 0, 0), rgb(255, 255, 255));"/></g><g><g fill="#000000" font-family="&quot;Helvetica&quot;" font-weight="bold" text-anchor="middle" font-size="12px" style="fill: light-dark(rgb(0, 0, 0), rgb(255, 255, 255));"><text x="168" y="18.5">InterfaceCreator</text></g></g><g data-cell-id="4-K8Nt5ZfAYIev5A59Jn-2"><g><rect x="18" y="31.4" width="301" height="30" fill="none" stroke="none" pointer-events="all"/></g><g><g fill="#000000" font-family="&quot;Helvetica&quot;" clip-path="url(#mx-clip-22-36-293-30-0)" font-size="12px" style="fill: light-dark(rgb(0, 0, 0), rgb(255, 255, 255));"><text x="23.5" y="48.9">- QApplication app</text></g></g></g><g data-cell-id="4-K8Nt5ZfAYIev5A59Jn-3"><g><rect x="18" y="61.4" width="301" height="30" fill="none" stroke="none" pointer-events="all"/></g><g><g fill="#000000" font-family="&quot;Helvetica&quot;" clip-path="url(#mx-clip-22-66-293-30-0)" font-size="12px" style="fill: light-dark(rgb(0, 0, 0), rgb(255, 255, 255));"><text x="23.5" y="78.9">- QMainWindow main_window</text></g></g></g><g data-cell-id="4-K8Nt5ZfAYIev5A59Jn-4"><g><rect x="18" y="91.4" width="301" height="30" fill="none" stroke="none" pointer-events="all"/></g><g><g fill="#000000" font-family="&quot;Helvetica&quot;" clip-path="url(#mx-clip-22-96-293-30-0)" font-size="12px" style="fill: light-dark(rgb(0, 0, 0), rgb(255, 255, 255));"><text x="23.5" y="108.9">- QLabel display_value_1</text></g></g></g><g data-cell-id="4-K8Nt5ZfAYIev5A59Jn-5"><g><rect x="18" y="121.4" width="301" height="30" fill="none" stroke="none" pointer-events="all"/></g><g><g fill="#000000" font-family="&quot;Helvetica&quot;" clip-path="url(#mx-clip-22-126-293-30-0)" font-size="12px" style="fill: light-dark(rgb(0, 0, 0), rgb(255, 255, 255));"><text x="23.5" y="138.9">- QLabel display_value_2</text></g></g></g><g data-cell-id="4-K8Nt5ZfAYIev5A59Jn-6"><g><rect x="18" y="151.4" width="301" height="30" fill="none" stroke="none" pointer-events="all"/></g><g><g fill="#000000" font-family="&quot;Helvetica&quot;" clip-path="url(#mx-clip-22-156-293-30-0)" font-size="12px" style="fill: light-dark(rgb(0, 0, 0), rgb(255, 255, 255));"><text x="23.5" y="168.9">- QLabel display_operator</text></g></g></g><g data-cell-id="4-K8Nt5ZfAYIev5A59Jn-7"><g><rect x="18" y="181.4" width="301" height="30" fill="none" stroke="none" pointer-events="all"/></g><g><g fill="#000000" font-family="&quot;Helvetica&quot;" clip-path="url(#mx-clip-22-186-293-30-0)" font-size="12px" style="fill: light-dark(rgb(0, 0, 0), rgb(255, 255, 255));"><text x="23.5" y="198.9">- QLabel display_result</text></g></g></g><g data-cell-id="4-K8Nt5ZfAYIev5A59Jn-8"><g><path d="M 18 215.4 L 319 215.4" fill="none" stroke="#000000" stroke-miterlimit="10" pointer-events="all" style="stroke: light-dark(rgb(0, 0, 0), rgb(255, 255, 255));"/></g></g><g data-cell-id="4-K8Nt5ZfAYIev5A59Jn-9"><g><rect x="18" y="219.4" width="301" height="30" fill="none" stroke="none" pointer-events="all"/></g><g><g fill="#000000" font-family="&quot;Helvetica&quot;" clip-path="url(#mx-clip-22-224-293-30-0)" font-size="12px" style="fill: light-dark(rgb(0, 0, 0), rgb(255, 255, 255));"><text x="23.5" y="236.9">+ __init__()</text></g></g></g><g data-cell-id="4-K8Nt5ZfAYIev5A59Jn-10"><g><rect x="18" y="249.4" width="301" height="30" fill="none" stroke="none" pointer-events="all"/></g><g><g fill="#000000" font-family="&quot;Helvetica&quot;" clip-path="url(#mx-clip-22-254-293-30-0)" font-size="12px" style="fill: light-dark(rgb(0, 0, 0), rgb(255, 255, 255));"><text x="23.5" y="266.9">+ run()</text></g></g></g><g data-cell-id="4-K8Nt5ZfAYIev5A59Jn-11"><g><rect x="18" y="279.4" width="301" height="30" fill="none" stroke="none" pointer-events="all"/></g><g><g fill="#000000" font-family="&quot;Helvetica&quot;" clip-path="url(#mx-clip-22-284-293-30-0)" font-size="12px" style="fill: light-dark(rgb(0, 0, 0), rgb(255, 255, 255));"><text x="23.5" y="296.9">- _setup_window()</text></g></g></g></g><g data-cell-id="4-K8Nt5ZfAYIev5A59Jn-12"><g><path d="M 144 422 L 144 401.1 Q 144 384 126.9 384 L 18.1 384 Q 1 384 1 401.1 L 1 422" fill="none" stroke="#000000" stroke-width="2" stroke-miterlimit="10" pointer-events="all" style="stroke: light-dark(rgb(0, 0, 0), rgb(255, 255, 255));"/><path d="M 1 422 L 1 423.9 Q 1 441 18.1 441 L 126.9 441 Q 144 441 144 423.9 L 144 422" fill="none" stroke="#000000" stroke-width="2" stroke-miterlimit="10" pointer-events="none" style="stroke: light-dark(rgb(0, 0, 0), rgb(255, 255, 255));"/><path d="M 1 422 L 144 422" fill="none" stroke="#000000" stroke-width="2" stroke-miterlimit="10" pointer-events="none" style="stroke: light-dark(rgb(0, 0, 0), rgb(255, 255, 255));"/></g><g><g fill="#000000" font-family="&quot;Helvetica&quot;" font-weight="bold" text-anchor="middle" font-size="12px" style="fill: light-dark(rgb(0, 0, 0), rgb(255, 255, 255));"><text x="72" y="401.5">ScreensCreator</text></g></g><g data-cell-id="4-K8Nt5ZfAYIev5A59Jn-13"><g><path d="M 1 431.5 L 144 431.5" fill="none" stroke="#000000" stroke-miterlimit="10" pointer-events="all" style="stroke: light-dark(rgb(0, 0, 0), rgb(255, 255, 255));"/></g></g></g><g data-cell-id="4-K8Nt5ZfAYIev5A59Jn-14"><g><path d="M 335 422 L 335 401.1 Q 335 384 317.9 384 L 211.1 384 Q 194 384 194 401.1 L 194 422" fill="none" stroke="#000000" stroke-width="2" stroke-miterlimit="10" pointer-events="all" style="stroke: light-dark(rgb(0, 0, 0), rgb(255, 255, 255));"/><path d="M 194 422 L 194 423.9 Q 194 441 211.1 441 L 317.9 441 Q 335 441 335 423.9 L 335 422" fill="none" stroke="#000000" stroke-width="2" stroke-miterlimit="10" pointer-events="none" style="stroke: light-dark(rgb(0, 0, 0), rgb(255, 255, 255));"/><path d="M 194 422 L 335 422" fill="none" stroke="#000000" stroke-width="2" stroke-miterlimit="10" pointer-events="none" style="stroke: light-dark(rgb(0, 0, 0), rgb(255, 255, 255));"/></g><g><g fill="#000000" font-family="&quot;Helvetica&quot;" font-weight="bold" text-anchor="middle" font-size="12px" style="fill: light-dark(rgb(0, 0, 0), rgb(255, 255, 255));"><text x="264" y="401.5">ButtonsCreator</text></g></g><g data-cell-id="4-K8Nt5ZfAYIev5A59Jn-15"><g><path d="M 194 431.5 L 335 431.5" fill="none" stroke="#000000" stroke-miterlimit="10" pointer-events="all" style="stroke: light-dark(rgb(0, 0, 0), rgb(255, 255, 255));"/></g></g></g><g data-cell-id="4-K8Nt5ZfAYIev5A59Jn-16"><g><path d="M 90.24 309.4 Q 73 349 72.53 381.76" fill="none" stroke="#000000" stroke-miterlimit="10" pointer-events="stroke" style="stroke: light-dark(rgb(0, 0, 0), rgb(255, 255, 255));"/><path d="M 66.2 369.79 L 72.52 382.88 L 79.2 369.98" fill="none" stroke="#000000" stroke-miterlimit="10" pointer-events="all" style="stroke: light-dark(rgb(0, 0, 0), rgb(255, 255, 255));"/></g><g><g fill="#000000" font-family="&quot;Helvetica&quot;" text-anchor="middle" font-size="11px" style="fill: light-dark(rgb(0, 0, 0), rgb(255, 255, 255));"><rect fill="#ffffff" stroke="none" x="65" y="339" width="20" height="14" stroke-width="0" style="fill: light-dark(#ffffff, var(--ge-dark-color, #121212));"/><text x="74.17" y="349.16">usa</text></g></g></g><g data-cell-id="4-K8Nt5ZfAYIev5A59Jn-17"><g><path d="M 246.76 309.4 Q 265 349 264.53 381.76" fill="none" stroke="#000000" stroke-miterlimit="10" pointer-events="stroke" style="stroke: light-dark(rgb(0, 0, 0), rgb(255, 255, 255));"/><path d="M 258.2 369.79 L 264.52 382.88 L 271.2 369.98" fill="none" stroke="#000000" stroke-miterlimit="10" pointer-events="all" style="stroke: light-dark(rgb(0, 0, 0), rgb(255, 255, 255));"/></g><g><g fill="#000000" font-family="&quot;Helvetica&quot;" text-anchor="middle" font-size="11px" style="fill: light-dark(rgb(0, 0, 0), rgb(255, 255, 255));"><rect fill="#ffffff" stroke="none" x="254" y="339" width="20" height="14" stroke-width="0" style="fill: light-dark(#ffffff, var(--ge-dark-color, #121212));"/><text x="262.58" y="348.82">usa</text></g></g></g></g></g></g></svg>