<?xml version="1.0" encoding="UTF-8"?>
<!DOCTYPE svg PUBLIC "-//W3C//DTD SVG 1.1//EN" "http://www.w3.org/Graphics/SVG/1.1/DTD/svg11.dtd">
<svg xmlns="http://www.w3.org/2000/svg" style="background: transparent; background-color: transparent; color-scheme: light dark;" xmlns:xlink="http://www.w3.org/1999/xlink" version="1.1" width="345px" height="298px" viewBox="-0.5 -0.5 345 298"><defs><clipPath id="mx-clip-37-46-271-40-0"><rect x="37" y="46" width="271" height="40"/></clipPath><clipPath id="mx-clip-37-86-271-40-0"><rect x="37" y="86" width="271" height="40"/></clipPath><clipPath id="mx-clip-37-134-271-40-0"><rect x="37" y="134" width="271" height="40"/></clipPath></defs><g><g data-cell-id="0"><g data-cell-id="1"><g data-cell-id="4-K8Nt5ZfAYIev5A59Jn-18"><g><path d="M 312 41 L 312 19 Q 312 1 294 1 L 51 1 Q 33 1 33 19 L 33 41" fill="none" stroke="#000000" stroke-width="2" stroke-miterlimit="10" pointer-events="all" style="stroke: light-dark(rgb(0, 0, 0), rgb(255, 255, 255));"/><path d="M 33 41 L 33 151 Q 33 169 51 169 L 294 169 Q 312 169 312 151 L 312 41" fill="none" stroke="#000000" stroke-width="2" stroke-miterlimit="10" pointer-events="none" style="stroke: light-dark(rgb(0, 0, 0), rgb(255, 255, 255));"/><path d="M 33 41 L 312 41" fill="none" stroke="#000000" stroke-width="2" stroke-miterlimit="10" pointer-events="none" style="stroke: light-dark(rgb(0, 0, 0), rgb(255, 255, 255));"/></g><g><g fill="#000000" font-family="&quot;Helvetica&quot;" font-weight="bold" text-anchor="middle" font-size="12px" style="fill: light-dark(rgb(0, 0, 0), rgb(255, 255, 255));"><text x="172" y="18.5">AppCalculator</text></g></g><g data-cell-id="4-K8Nt5ZfAYIev5A59Jn-19"><g><rect x="33" y="41" width="279" height="40" fill="none" stroke="none" pointer-events="all"/></g><g><g fill="#000000" font-family="&quot;Helvetica&quot;" clip-path="url(#mx-clip-37-46-271-40-0)" font-size="12px" style="fill: light-dark(rgb(0, 0, 0), rgb(255, 255, 255));"><text x="38.5" y="58.5">+InterfaceCreator interface</text></g></g></g><g data-cell-id="4-K8Nt5ZfAYIev5A59Jn-20"><g><rect x="33" y="81" width="279" height="40" fill="none" stroke="none" pointer-events="all"/></g><g><g fill="#000000" font-family="&quot;Helvetica&quot;" clip-path="url(#mx-clip-37-86-271-40-0)" font-size="12px" style="fill: light-dark(rgb(0, 0, 0), rgb(255, 255, 255));"><text x="38.5" y="98.5">+HistoryManager history_db</text></g></g></g><g data-cell-id="4-K8Nt5ZfAYIev5A59Jn-21"><g><path d="M 33 125 L 312 125" fill="none" stroke="#000000" stroke-miterlimit="10" pointer-events="all" style="stroke: light-dark(rgb(0, 0, 0), rgb(255, 255, 255));"/></g></g><g data-cell-id="4-K8Nt5ZfAYIev5A59Jn-22"><g><rect x="33" y="129" width="279" height="40" fill="none" stroke="none" pointer-events="all"/></g><g><g fill="#000000" font-family="&quot;Helvetica&quot;" clip-path="url(#mx-clip-37-134-271-40-0)" font-size="12px" style="fill: light-dark(rgb(0, 0, 0), rgb(255, 255, 255));"><text x="38.5" y="146.5">+main() : void</text></g></g></g></g><g data-cell-id="4-K8Nt5ZfAYIev5A59Jn-23"><g><path d="M 149 278 L 149 257.1 Q 149 240 131.9 240 L 18.1 240 Q 1 240 1 257.1 L 1 278" fill="none" stroke="#000000" stroke-width="2" stroke-miterlimit="10" pointer-events="all" style="stroke: light-dark(rgb(0, 0, 0), rgb(255, 255, 255));"/><path d="M 1 278 L 1 279.9 Q 1 297 18.1 297 L 131.9 297 Q 149 297 149 279.9 L 149 278" fill="none" stroke="#000000" stroke-width="2" stroke-miterlimit="10" pointer-events="none" style="stroke: light-dark(rgb(0, 0, 0), rgb(255, 255, 255));"/><path d="M 1 278 L 149 278" fill="none" stroke="#000000" stroke-width="2" stroke-miterlimit="10" pointer-events="none" style="stroke: light-dark(rgb(0, 0, 0), rgb(255, 255, 255));"/></g><g><g fill="#000000" font-family="&quot;Helvetica&quot;" font-weight="bold" text-anchor="middle" font-size="12px" style="fill: light-dark(rgb(0, 0, 0), rgb(255, 255, 255));"><text x="74.5" y="257.5">InterfaceCreator</text></g></g><g data-cell-id="4-K8Nt5ZfAYIev5A59Jn-24"><g><path d="M 1 287.5 L 149 287.5" fill="none" stroke="#000000" stroke-miterlimit="10" pointer-events="all" style="stroke: light-dark(rgb(0, 0, 0), rgb(255, 255, 255));"/></g></g></g><g data-cell-id="4-K8Nt5ZfAYIev5A59Jn-25"><g><path d="M 344 278 L 344 257.1 Q 344 240 326.9 240 L 216.1 240 Q 199 240 199 257.1 L 199 278" fill="none" stroke="#000000" stroke-width="2" stroke-miterlimit="10" pointer-events="all" style="stroke: light-dark(rgb(0, 0, 0), rgb(255, 255, 255));"/><path d="M 199 278 L 199 279.9 Q 199 297 216.1 297 L 326.9 297 Q 344 297 344 279.9 L 344 278" fill="none" stroke="#000000" stroke-width="2" stroke-miterlimit="10" pointer-events="none" style="stroke: light-dark(rgb(0, 0, 0), rgb(255, 255, 255));"/><path d="M 199 278 L 344 278" fill="none" stroke="#000000" stroke-width="2" stroke-miterlimit="10" pointer-events="none" style="stroke: light-dark(rgb(0, 0, 0), rgb(255, 255, 255));"/></g><g><g fill="#000000" font-family="&quot;Helvetica&quot;" font-weight="bold" text-anchor="middle" font-size="12px" style="fill: light-dark(rgb(0, 0, 0), rgb(255, 255, 255));"><text x="271" y="257.5">HistoryManager</text></g></g><g data-cell-id="4-K8Nt5ZfAYIev5A59Jn-26"><g><path d="M 199 287.5 L 344 287.5" fill="none" stroke="#000000" stroke-miterlimit="10" pointer-events="all" style="stroke: light-dark(rgb(0, 0, 0), rgb(255, 255, 255));"/></g></g></g><g data-cell-id="4-K8Nt5ZfAYIev5A59Jn-27"><g><path d="M 102.75 169 Q 75 205 75 235.53" fill="none" stroke="#000000" stroke-width="2" stroke-miterlimit="10" pointer-events="stroke" style="stroke: light-dark(rgb(0, 0, 0), rgb(255, 255, 255));"/><path d="M 68 223.76 L 75 237.76 L 82 223.76" fill="none" stroke="#000000" stroke-width="2" stroke-miterlimit="10" pointer-events="all" style="stroke: light-dark(rgb(0, 0, 0), rgb(255, 255, 255));"/></g><g><g fill="#000000" font-family="&quot;Helvetica&quot;" text-anchor="middle" font-size="11px" style="fill: light-dark(rgb(0, 0, 0), rgb(255, 255, 255));"><rect fill="#ffffff" stroke="none" x="64" y="195" width="30" height="14" stroke-width="0" style="fill: light-dark(#ffffff, var(--ge-dark-color, #121212));"/><text x="77.83" y="204.68">utiliza</text></g></g></g><g data-cell-id="4-K8Nt5ZfAYIev5A59Jn-28"><g><path d="M 242.25 169 Q 271 205 271.44 235.53" fill="none" stroke="#000000" stroke-width="2" stroke-miterlimit="10" pointer-events="stroke" style="stroke: light-dark(rgb(0, 0, 0), rgb(255, 255, 255));"/><path d="M 264.27 223.87 L 271.47 237.76 L 278.27 223.67" fill="none" stroke="#000000" stroke-width="2" stroke-miterlimit="10" pointer-events="all" style="stroke: light-dark(rgb(0, 0, 0), rgb(255, 255, 255));"/></g><g><g fill="#000000" font-family="&quot;Helvetica&quot;" text-anchor="middle" font-size="11px" style="fill: light-dark(rgb(0, 0, 0), rgb(255, 255, 255));"><rect fill="#ffffff" stroke="none" x="253" y="195" width="30" height="14" stroke-width="0" style="fill: light-dark(#ffffff, var(--ge-dark-color, #121212));"/><text x="267.34" y="205.04">utiliza</text></g></g></g></g></g></g></svg>